<?xml version="1.0" encoding="UTF-8"?>
<!DOCTYPE svg PUBLIC "-//W3C//DTD SVG 1.1//EN" 
"http://www.w3.org/Graphics/SVG/1.1/DTD/svg11.dtd">

<svg width="100%" height="100%" version="1.1"
xmlns="http://www.w3.org/2000/svg">
<path d="M 23.897502899169922 62.38104248046875 L 22.832550048828125 62.684051513671875 L 21.841407775878906 63.177581787109375 L 20.957826614379883 63.84483337402344 L 20.211896896362305 64.66307067871094 L 19.62902069091797 65.60444641113281 L 19.229045867919922 66.63690185546875 L 19.02559471130371 67.72526550292969 L 19.02559471130371 68.83248901367188 L 19.229045867919922 69.92085266113281 L 19.62902069091797 70.95330810546875 L 20.211896896362305 71.89468383789062 L 20.957826614379883 72.71293640136719 L 21.841407775878906 73.38018798828125 L 22.832550048828125 73.87371826171875 L 23.897502899169922 74.17671203613281 L 25.0 74.27888488769531 L 45.0 74.27888488769531 L 65.0 74.27888488769531 L 85.0 74.27888488769531 L 103.02851867675781 74.27888488769531 L 117.11795806884766 84.6585693359375 L 138.56092834472656 84.6585693359375 L 152.65036010742188 74.27888488769531 L 170.6788787841797 74.27888488769531 L 190.6788787841797 74.27888488769531 L 210.6788787841797 74.27888488769531 L 224.75022888183594 74.27888488769531 L 224.82008361816406 80.11911010742188 L 230.49710083007812 93.03401184082031 L 243.40829467773438 98.706787109375 L 249.24798583984375 98.77664184570312 L 249.24798583984375 112.84799194335938 L 249.24798583984375 132.84799194335938 L 249.24798583984375 148.6787109375 L 239.30670166015625 152.37799072265625 L 226.3382568359375 160.70480346679688 L 215.43405151367188 171.60714721679688 L 207.0999298095703 184.58462524414062 L 203.40057373046875 194.52615356445312 L 187.56982421875 194.52615356445312 L 167.56982421875 194.52615356445312 L 148.1845703125 194.52615356445312 L 128.8571319580078 190.523681640625 L 110.86219787597656 205.17391967773438 L 110.86219787597656 228.37838745117188 L 128.8571319580078 243.02859497070312 L 148.1845703125 239.02615356445312 L 167.56982421875 239.02615356445312 L 187.56982421875 239.02615356445312 L 203.45730590820312 239.02615356445312 L 207.93800354003906 250.61117553710938 L 217.82420349121094 264.77410888671875 L 230.786865234375 276.16705322265625 L 246.0951690673828 284.1510314941406 L 262.85955810546875 288.26080322265625 L 280.1258850097656 288.2621154785156 L 296.89990234375 284.1513977050781 L 312.20843505859375 276.16754150390625 L 325.1726379394531 264.77313232421875 L 335.0579833984375 250.61114501953125 L 339.5386657714844 239.02615356445312 L 355.4261474609375 239.02615356445312 L 374.2362365722656 239.02615356445312 L 391.6016845703125 246.19580078125 L 408.96710205078125 239.02615356445312 L 427.7772216796875 239.02615356445312 L 447.7772216796875 239.02615356445312 L 465.29193115234375 239.02615356445312 L 486.3463134765625 260.0805358886719 L 486.3463134765625 277.5952453613281 L 486.3463134765625 296.4111633300781 L 479.2054443359375 313.7989501953125 L 487.8388671875 334.53564453125 L 508.5963134765625 343.1189880371094 L 529.353759765625 334.53564453125 L 537.9871826171875 313.7989501953125 L 530.8463134765625 296.4111633300781 L 530.8463134765625 277.5952453613281 L 530.8463134765625 260.82904052734375 L 543.9946899414062 252.17453002929688 L 552.6492309570312 239.02615356445312 L 569.4154052734375 239.02615356445312 L 589.4154052734375 239.02615356445312 L 609.4154052734375 239.02615356445312 L 625.271484375 239.02615356445312 L 630.0509033203125 251.6492919921875 L 640.5545654296875 266.7294616699219 L 654.4252319335938 278.7962951660156 L 670.8128662109375 287.1109924316406 L 688.741455078125 291.17852783203125 L 707.1061401367188 290.7507629394531 L 724.8214721679688 285.854736328125 L 740.800048828125 276.7906494140625 L 754.0934448242188 264.09576416015625 L 763.8840942382812 248.55001831054688 L 769.5895385742188 231.08157348632812 L 770.8621215820312 212.7486572265625 L 767.6263427734375 194.66357421875 L 762.0800170898438 182.35821533203125 L 772.8572387695312 171.58096313476562 L 789.35400390625 160.74456787109375 L 791.7190551757812 137.66094970703125 L 775.31103515625 121.25289916992188 L 752.2274169921875 123.61798095703125 L 741.3909912109375 140.11471557617188 L 730.5183715820312 150.9873046875 L 718.44580078125 145.9866943359375 L 718.44580078125 129.99575805664062 L 718.44580078125 109.99575805664062 L 718.44580078125 92.98422241210938 L 733.272216796875 81.79295349121094 L 743.0045776367188 60.894439697265625 L 741.7947998046875 37.871795654296875 L 729.9199829101562 18.102645874023438 L 710.1529541015625 6.2175140380859375 L 687.1240844726562 5.0 L 666.2142333984375 14.734390258789062 L 655.022705078125 29.561141967773438 L 638.01123046875 29.561141967773438 L 619.6395263671875 29.561141967773438 L 604.0548706054688 20.42974853515625 L 582.4891967773438 24.137466430664062 L 568.3878173828125 40.87007141113281 L 568.3878173828125 62.75221252441406 L 582.4891967773438 79.48481750488281 L 604.0548706054688 83.19253540039062 L 619.6395263671875 74.06114196777344 L 638.01123046875 74.06114196777344 L 654.5728759765625 74.06114196777344 L 658.5684814453125 80.87957763671875 L 667.1273803710938 89.43846130371094 L 673.94580078125 93.43405151367188 L 673.94580078125 109.99575805664062 L 673.94580078125 129.99575805664062 L 673.94580078125 145.91104125976562 L 659.5537109375 151.58233642578125 L 643.314453125 163.894775390625 L 631.0020141601562 180.134033203125 L 625.3307495117188 194.52615356445312 L 609.4154052734375 194.52615356445312 L 589.4154052734375 194.52615356445312 L 569.4154052734375 194.52615356445312 L 552.7780151367188 194.52615356445312 L 546.221923828125 183.8126220703125 L 533.049560546875 173.13766479492188 L 517.0775146484375 167.47760009765625 L 500.1184387207031 167.47698974609375 L 484.1401672363281 173.13931274414062 L 470.97064208984375 183.81271362304688 L 464.41461181640625 194.52615356445312 L 447.7772216796875 194.52615356445312 L 427.7772216796875 194.52615356445312 L 408.96710205078125 194.52615356445312 L 391.6016845703125 187.35650634765625 L 374.2362365722656 194.52615356445312 L 355.4261474609375 194.52615356445312 L 338.9160461425781 194.52615356445312 L 322.53955078125 165.73458862304688 L 293.74798583984375 149.35806274414062 L 293.74798583984375 132.84799194335938 L 293.74798583984375 112.84799194335938 L 293.74798583984375 96.34907531738281 L 301.74688720703125 91.82875061035156 L 311.2978515625 82.27778625488281 L 315.81817626953125 74.27888488769531 L 332.3171081542969 74.27888488769531 L 352.3171081542969 74.27888488769531 L 372.3171081542969 74.27888488769531 L 392.3171081542969 74.27888488769531 L 412.3171081542969 74.27888488769531 L 432.3171081542969 74.27888488769531 L 452.3171081542969 74.27888488769531 L 470.3284912109375 74.27888488769531 L 484.3418884277344 84.71426391601562 L 505.7624816894531 84.89425659179688 L 523.156005859375 72.39064025878906 L 529.8097534179688 52.02888488769531 L 523.156005859375 31.6671142578125 L 505.7624816894531 19.163497924804688 L 484.3418884277344 19.343490600585938 L 470.3284912109375 29.778884887695312 L 452.3171081542969 29.778884887695312 L 432.3171081542969 29.778884887695312 L 412.3171081542969 29.778884887695312 L 392.3171081542969 29.778884887695312 L 372.3171081542969 29.778884887695312 L 352.3171081542969 29.778884887695312 L 332.3171081542969 29.778884887695312 L 314.8348693847656 29.778884887695312 L 291.0162048339844 5.516571044921875 L 251.9797821044922 5.516571044921875 L 228.16110229492188 29.778884887695312 L 210.6788787841797 29.778884887695312 L 190.6788787841797 29.778884887695312 L 170.6788787841797 29.778884887695312 L 152.65036010742188 29.778884887695312 L 138.56092834472656 19.399200439453125 L 117.11795806884766 19.399200439453125 L 103.02851867675781 29.778884887695312 L 85.0 29.778884887695312 L 65.0 29.778884887695312 L 45.0 29.778884887695312 L 25.0 29.778884887695312 L 23.897502899169922 29.88104248046875 L 22.832550048828125 30.184051513671875 L 21.841407775878906 30.677581787109375 L 20.957826614379883 31.344833374023438 L 20.211896896362305 32.16307067871094 L 19.62902069091797 33.10444641113281 L 19.229045867919922 34.13690185546875 L 19.02559471130371 35.22526550292969 L 19.02559471130371 36.332489013671875 L 19.229045867919922 37.42085266113281 L 19.62902069091797 38.45330810546875 L 20.211896896362305 39.394683837890625 L 20.957826614379883 40.21293640136719 L 21.841407775878906 40.88018798828125 L 22.832550048828125 41.37371826171875 L 23.897502899169922 41.67671203613281 L 25.0 41.77888488769531 L 45.0 41.77888488769531 L 65.0 41.77888488769531 L 85.0 41.77888488769531 L 106.97148132324219 41.77888488769531 L 121.06092071533203 31.399200439453125 L 134.6179656982422 31.399200439453125 L 148.7073974609375 41.77888488769531 L 170.6788787841797 41.77888488769531 L 190.6788787841797 41.77888488769531 L 210.6788787841797 41.77888488769531 L 233.1966552734375 41.77888488769531 L 257.01531982421875 17.516571044921875 L 285.98065185546875 17.516571044921875 L 309.79931640625 41.77888488769531 L 332.3171081542969 41.77888488769531 L 352.3171081542969 41.77888488769531 L 372.3171081542969 41.77888488769531 L 392.3171081542969 41.77888488769531 L 412.3171081542969 41.77888488769531 L 432.3171081542969 41.77888488769531 L 452.3171081542969 41.77888488769531 L 474.3056945800781 41.77888488769531 L 488.3639221191406 31.31011962890625 L 501.9421081542969 31.196029663085938 L 512.9675903320312 39.12187194824219 L 517.185302734375 52.02888488769531 L 512.9675903320312 64.93588256835938 L 501.9421081542969 72.86174011230469 L 488.3639221191406 72.74765014648438 L 474.3056945800781 62.27888488769531 L 452.3171081542969 62.27888488769531 L 432.3171081542969 62.27888488769531 L 412.3171081542969 62.27888488769531 L 392.3171081542969 62.27888488769531 L 372.3171081542969 62.27888488769531 L 352.3171081542969 62.27888488769531 L 332.3171081542969 62.27888488769531 L 308.8160095214844 62.27888488769531 L 301.6556396484375 74.94944763183594 L 294.4185485839844 82.18653869628906 L 281.74798583984375 89.34689331054688 L 281.74798583984375 112.84799194335938 L 281.74798583984375 132.84799194335938 L 281.74798583984375 156.337890625 L 313.73956298828125 174.53457641601562 L 331.9362487792969 206.52615356445312 L 355.4261474609375 206.52615356445312 L 376.61602783203125 206.52615356445312 L 391.6016845703125 200.33905029296875 L 406.5873107910156 206.52615356445312 L 427.7772216796875 206.52615356445312 L 447.7772216796875 206.52615356445312 L 471.13983154296875 206.52615356445312 L 480.1292419433594 191.83624267578125 L 490.0930480957031 183.76095581054688 L 502.181640625 179.47705078125 L 515.013916015625 179.47750854492188 L 527.0968627929688 183.7593994140625 L 537.0634765625 191.83633422851562 L 546.0527954101562 206.52615356445312 L 569.4154052734375 206.52615356445312 L 589.4154052734375 206.52615356445312 L 609.4154052734375 206.52615356445312 L 633.5001220703125 206.52615356445312 L 641.5614013671875 186.06890869140625 L 651.879638671875 172.45993041992188 L 665.4885864257812 162.14175415039062 L 685.94580078125 154.0804443359375 L 685.94580078125 129.99575805664062 L 685.94580078125 109.99575805664062 L 685.94580078125 86.55744934082031 L 674.5234375 79.86395263671875 L 668.1430053710938 73.4835205078125 L 661.4495239257812 62.06114196777344 L 638.01123046875 62.06114196777344 L 616.3828735351562 62.06114196777344 L 601.7694091796875 70.62353515625 L 588.8412475585938 68.40084838867188 L 580.3878173828125 58.37005615234375 L 580.3878173828125 45.252227783203125 L 588.8412475585938 35.221435546875 L 601.7694091796875 32.998748779296875 L 616.3828735351562 41.56114196777344 L 638.01123046875 41.56114196777344 L 660.9996948242188 41.56114196777344 L 673.990234375 24.35101318359375 L 689.4772338867188 17.141159057617188 L 706.53271484375 18.042877197265625 L 721.1732177734375 26.84564208984375 L 729.96826171875 41.487548828125 L 730.8641967773438 58.53865051269531 L 723.65625 74.01651000976562 L 706.44580078125 87.00729370117188 L 706.44580078125 109.99575805664062 L 706.44580078125 129.99575805664062 L 706.44580078125 154.00482177734375 L 733.333984375 165.14227294921875 L 750.7456665039062 147.73062133789062 L 759.1251831054688 134.97406005859375 L 770.859375 133.77182006835938 L 779.2001342773438 142.11257934570312 L 777.9978637695312 153.84677124023438 L 765.2413330078125 162.22628784179688 L 747.7343139648438 179.73333740234375 L 756.0756225585938 198.23980712890625 L 758.7880859375 213.39974975585938 L 757.72119140625 228.768310546875 L 752.9383544921875 243.412109375 L 744.731201171875 256.44354248046875 L 733.5868530273438 267.0861511230469 L 720.1928100585938 274.6841125488281 L 705.3414916992188 278.7886047363281 L 689.9474487304688 279.1471862792969 L 674.9171752929688 275.7371826171875 L 661.1801147460938 268.7673645019531 L 649.552001953125 258.6513977050781 L 640.7471923828125 246.01028442382812 L 633.5593872070312 227.02615356445312 L 609.4154052734375 227.02615356445312 L 589.4154052734375 227.02615356445312 L 569.4154052734375 227.02615356445312 L 546.181640625 227.02615356445312 L 535.3310546875 243.5108642578125 L 518.8463134765625 254.3614501953125 L 518.8463134765625 277.5952453613281 L 518.8463134765625 298.7793273925781 L 525.0017700195312 313.7676086425781 L 520.1827392578125 325.34246826171875 L 508.5963134765625 330.133544921875 L 497.0098876953125 325.34246826171875 L 492.19085693359375 313.7676086425781 L 498.3463134765625 298.7793273925781 L 498.3463134765625 277.5952453613281 L 498.3463134765625 255.10995483398438 L 470.26251220703125 227.02615356445312 L 447.7772216796875 227.02615356445312 L 427.7772216796875 227.02615356445312 L 406.5873107910156 227.02615356445312 L 391.6016845703125 233.2132568359375 L 376.61602783203125 227.02615356445312 L 355.4261474609375 227.02615356445312 L 331.3135986328125 227.02615356445312 L 324.3886413574219 244.93093872070312 L 316.16217041015625 256.7164001464844 L 305.3747253417969 266.1976013183594 L 292.6359558105469 272.84124755859375 L 278.6773986816406 276.2619934082031 L 264.3094482421875 276.26092529296875 L 250.359619140625 272.84112548828125 L 237.62060546875 266.1971740722656 L 226.8346405029297 256.7173156738281 L 218.60733032226562 244.930908203125 L 211.68235778808594 227.02615356445312 L 187.56982421875 227.02615356445312 L 167.56982421875 227.02615356445312 L 146.95509338378906 227.02615356445312 L 132.00962829589844 230.12115478515625 L 122.86219787597656 222.6739501953125 L 122.86219787597656 210.87832641601562 L 132.00962829589844 203.43112182617188 L 146.95509338378906 206.52615356445312 L 167.56982421875 206.52615356445312 L 187.56982421875 206.52615356445312 L 211.7390899658203 206.52615356445312 L 217.89566040039062 189.98123168945312 L 224.83273315429688 179.17919921875 L 233.90908813476562 170.1043701171875 L 244.7028350830078 163.17391967773438 L 261.24798583984375 157.01724243164062 L 261.24798583984375 132.84799194335938 L 261.24798583984375 112.84799194335938 L 261.24798583984375 86.91932678222656 L 245.99676513671875 86.73689270019531 L 239.60223388671875 83.92733764648438 L 236.7899627685547 77.52957153320312 L 236.6075439453125 62.27888488769531 L 210.6788787841797 62.27888488769531 L 190.6788787841797 62.27888488769531 L 170.6788787841797 62.27888488769531 L 148.7073974609375 62.27888488769531 L 134.6179656982422 72.6585693359375 L 121.06092071533203 72.6585693359375 L 106.97148132324219 62.27888488769531 L 85.0 62.27888488769531 L 65.0 62.27888488769531 L 45.0 62.27888488769531 L 25.0 62.27888488769531 z" fill="rgb(73%, 100%, 86%)" style="stroke:none;"/>
<path d="M 23.897502899169922 62.38104248046875 L 22.832550048828125 62.684051513671875 L 21.841407775878906 63.177581787109375 L 20.957826614379883 63.84483337402344 L 20.211896896362305 64.66307067871094 L 19.62902069091797 65.60444641113281 L 19.229045867919922 66.63690185546875 L 19.02559471130371 67.72526550292969 L 19.02559471130371 68.83248901367188 L 19.229045867919922 69.92085266113281 L 19.62902069091797 70.95330810546875 L 20.211896896362305 71.89468383789062 L 20.957826614379883 72.71293640136719 L 21.841407775878906 73.38018798828125 L 22.832550048828125 73.87371826171875 L 23.897502899169922 74.17671203613281 L 25.0 74.27888488769531 L 45.0 74.27888488769531 L 65.0 74.27888488769531 L 85.0 74.27888488769531 L 103.02851867675781 74.27888488769531 L 117.11795806884766 84.6585693359375 L 138.56092834472656 84.6585693359375 L 152.65036010742188 74.27888488769531 L 170.6788787841797 74.27888488769531 L 190.6788787841797 74.27888488769531 L 210.6788787841797 74.27888488769531 L 224.75022888183594 74.27888488769531 L 224.82008361816406 80.11911010742188 L 230.49710083007812 93.03401184082031 L 243.40829467773438 98.706787109375 L 249.24798583984375 98.77664184570312 L 249.24798583984375 112.84799194335938 L 249.24798583984375 132.84799194335938 L 249.24798583984375 148.6787109375 L 239.30670166015625 152.37799072265625 L 226.3382568359375 160.70480346679688 L 215.43405151367188 171.60714721679688 L 207.0999298095703 184.58462524414062 L 203.40057373046875 194.52615356445312 L 187.56982421875 194.52615356445312 L 167.56982421875 194.52615356445312 L 148.1845703125 194.52615356445312 L 128.8571319580078 190.523681640625 L 110.86219787597656 205.17391967773438 L 110.86219787597656 228.37838745117188 L 128.8571319580078 243.02859497070312 L 148.1845703125 239.02615356445312 L 167.56982421875 239.02615356445312 L 187.56982421875 239.02615356445312 L 203.45730590820312 239.02615356445312 L 207.93800354003906 250.61117553710938 L 217.82420349121094 264.77410888671875 L 230.786865234375 276.16705322265625 L 246.0951690673828 284.1510314941406 L 262.85955810546875 288.26080322265625 L 280.1258850097656 288.2621154785156 L 296.89990234375 284.1513977050781 L 312.20843505859375 276.16754150390625 L 325.1726379394531 264.77313232421875 L 335.0579833984375 250.61114501953125 L 339.5386657714844 239.02615356445312 L 355.4261474609375 239.02615356445312 L 374.2362365722656 239.02615356445312 L 391.6016845703125 246.19580078125 L 408.96710205078125 239.02615356445312 L 427.7772216796875 239.02615356445312 L 447.7772216796875 239.02615356445312 L 465.29193115234375 239.02615356445312 L 486.3463134765625 260.0805358886719 L 486.3463134765625 277.5952453613281 L 486.3463134765625 296.4111633300781 L 479.2054443359375 313.7989501953125 L 487.8388671875 334.53564453125 L 508.5963134765625 343.1189880371094 L 529.353759765625 334.53564453125 L 537.9871826171875 313.7989501953125 L 530.8463134765625 296.4111633300781 L 530.8463134765625 277.5952453613281 L 530.8463134765625 260.82904052734375 L 543.9946899414062 252.17453002929688 L 552.6492309570312 239.02615356445312 L 569.4154052734375 239.02615356445312 L 589.4154052734375 239.02615356445312 L 609.4154052734375 239.02615356445312 L 625.271484375 239.02615356445312 L 630.0509033203125 251.6492919921875 L 640.5545654296875 266.7294616699219 L 654.4252319335938 278.7962951660156 L 670.8128662109375 287.1109924316406 L 688.741455078125 291.17852783203125 L 707.1061401367188 290.7507629394531 L 724.8214721679688 285.854736328125 L 740.800048828125 276.7906494140625 L 754.0934448242188 264.09576416015625 L 763.8840942382812 248.55001831054688 L 769.5895385742188 231.08157348632812 L 770.8621215820312 212.7486572265625 L 767.6263427734375 194.66357421875 L 762.0800170898438 182.35821533203125 L 772.8572387695312 171.58096313476562 L 789.35400390625 160.74456787109375 L 791.7190551757812 137.66094970703125 L 775.31103515625 121.25289916992188 L 752.2274169921875 123.61798095703125 L 741.3909912109375 140.11471557617188 L 730.5183715820312 150.9873046875 L 718.44580078125 145.9866943359375 L 718.44580078125 129.99575805664062 L 718.44580078125 109.99575805664062 L 718.44580078125 92.98422241210938 L 733.272216796875 81.79295349121094 L 743.0045776367188 60.894439697265625 L 741.7947998046875 37.871795654296875 L 729.9199829101562 18.102645874023438 L 710.1529541015625 6.2175140380859375 L 687.1240844726562 5.0 L 666.2142333984375 14.734390258789062 L 655.022705078125 29.561141967773438 L 638.01123046875 29.561141967773438 L 619.6395263671875 29.561141967773438 L 604.0548706054688 20.42974853515625 L 582.4891967773438 24.137466430664062 L 568.3878173828125 40.87007141113281 L 568.3878173828125 62.75221252441406 L 582.4891967773438 79.48481750488281 L 604.0548706054688 83.19253540039062 L 619.6395263671875 74.06114196777344 L 638.01123046875 74.06114196777344 L 654.5728759765625 74.06114196777344 L 658.5684814453125 80.87957763671875 L 667.1273803710938 89.43846130371094 L 673.94580078125 93.43405151367188 L 673.94580078125 109.99575805664062 L 673.94580078125 129.99575805664062 L 673.94580078125 145.91104125976562 L 659.5537109375 151.58233642578125 L 643.314453125 163.894775390625 L 631.0020141601562 180.134033203125 L 625.3307495117188 194.52615356445312 L 609.4154052734375 194.52615356445312 L 589.4154052734375 194.52615356445312 L 569.4154052734375 194.52615356445312 L 552.7780151367188 194.52615356445312 L 546.221923828125 183.8126220703125 L 533.049560546875 173.13766479492188 L 517.0775146484375 167.47760009765625 L 500.1184387207031 167.47698974609375 L 484.1401672363281 173.13931274414062 L 470.97064208984375 183.81271362304688 L 464.41461181640625 194.52615356445312 L 447.7772216796875 194.52615356445312 L 427.7772216796875 194.52615356445312 L 408.96710205078125 194.52615356445312 L 391.6016845703125 187.35650634765625 L 374.2362365722656 194.52615356445312 L 355.4261474609375 194.52615356445312 L 338.9160461425781 194.52615356445312 L 322.53955078125 165.73458862304688 L 293.74798583984375 149.35806274414062 L 293.74798583984375 132.84799194335938 L 293.74798583984375 112.84799194335938 L 293.74798583984375 96.34907531738281 L 301.74688720703125 91.82875061035156 L 311.2978515625 82.27778625488281 L 315.81817626953125 74.27888488769531 L 332.3171081542969 74.27888488769531 L 352.3171081542969 74.27888488769531 L 372.3171081542969 74.27888488769531 L 392.3171081542969 74.27888488769531 L 412.3171081542969 74.27888488769531 L 432.3171081542969 74.27888488769531 L 452.3171081542969 74.27888488769531 L 470.3284912109375 74.27888488769531 L 484.3418884277344 84.71426391601562 L 505.7624816894531 84.89425659179688 L 523.156005859375 72.39064025878906 L 529.8097534179688 52.02888488769531 L 523.156005859375 31.6671142578125 L 505.7624816894531 19.163497924804688 L 484.3418884277344 19.343490600585938 L 470.3284912109375 29.778884887695312 L 452.3171081542969 29.778884887695312 L 432.3171081542969 29.778884887695312 L 412.3171081542969 29.778884887695312 L 392.3171081542969 29.778884887695312 L 372.3171081542969 29.778884887695312 L 352.3171081542969 29.778884887695312 L 332.3171081542969 29.778884887695312 L 314.8348693847656 29.778884887695312 L 291.0162048339844 5.516571044921875 L 251.9797821044922 5.516571044921875 L 228.16110229492188 29.778884887695312 L 210.6788787841797 29.778884887695312 L 190.6788787841797 29.778884887695312 L 170.6788787841797 29.778884887695312 L 152.65036010742188 29.778884887695312 L 138.56092834472656 19.399200439453125 L 117.11795806884766 19.399200439453125 L 103.02851867675781 29.778884887695312 L 85.0 29.778884887695312 L 65.0 29.778884887695312 L 45.0 29.778884887695312 L 25.0 29.778884887695312 L 23.897502899169922 29.88104248046875 L 22.832550048828125 30.184051513671875 L 21.841407775878906 30.677581787109375 L 20.957826614379883 31.344833374023438 L 20.211896896362305 32.16307067871094 L 19.62902069091797 33.10444641113281 L 19.229045867919922 34.13690185546875 L 19.02559471130371 35.22526550292969 L 19.02559471130371 36.332489013671875 L 19.229045867919922 37.42085266113281 L 19.62902069091797 38.45330810546875 L 20.211896896362305 39.394683837890625 L 20.957826614379883 40.21293640136719 L 21.841407775878906 40.88018798828125 L 22.832550048828125 41.37371826171875 L 23.897502899169922 41.67671203613281 L 25.0 41.77888488769531 L 45.0 41.77888488769531 L 65.0 41.77888488769531 L 85.0 41.77888488769531 L 106.97148132324219 41.77888488769531 L 121.06092071533203 31.399200439453125 L 134.6179656982422 31.399200439453125 L 148.7073974609375 41.77888488769531 L 170.6788787841797 41.77888488769531 L 190.6788787841797 41.77888488769531 L 210.6788787841797 41.77888488769531 L 233.1966552734375 41.77888488769531 L 257.01531982421875 17.516571044921875 L 285.98065185546875 17.516571044921875 L 309.79931640625 41.77888488769531 L 332.3171081542969 41.77888488769531 L 352.3171081542969 41.77888488769531 L 372.3171081542969 41.77888488769531 L 392.3171081542969 41.77888488769531 L 412.3171081542969 41.77888488769531 L 432.3171081542969 41.77888488769531 L 452.3171081542969 41.77888488769531 L 474.3056945800781 41.77888488769531 L 488.3639221191406 31.31011962890625 L 501.9421081542969 31.196029663085938 L 512.9675903320312 39.12187194824219 L 517.185302734375 52.02888488769531 L 512.9675903320312 64.93588256835938 L 501.9421081542969 72.86174011230469 L 488.3639221191406 72.74765014648438 L 474.3056945800781 62.27888488769531 L 452.3171081542969 62.27888488769531 L 432.3171081542969 62.27888488769531 L 412.3171081542969 62.27888488769531 L 392.3171081542969 62.27888488769531 L 372.3171081542969 62.27888488769531 L 352.3171081542969 62.27888488769531 L 332.3171081542969 62.27888488769531 L 308.8160095214844 62.27888488769531 L 301.6556396484375 74.94944763183594 L 294.4185485839844 82.18653869628906 L 281.74798583984375 89.34689331054688 L 281.74798583984375 112.84799194335938 L 281.74798583984375 132.84799194335938 L 281.74798583984375 156.337890625 L 313.73956298828125 174.53457641601562 L 331.9362487792969 206.52615356445312 L 355.4261474609375 206.52615356445312 L 376.61602783203125 206.52615356445312 L 391.6016845703125 200.33905029296875 L 406.5873107910156 206.52615356445312 L 427.7772216796875 206.52615356445312 L 447.7772216796875 206.52615356445312 L 471.13983154296875 206.52615356445312 L 480.1292419433594 191.83624267578125 L 490.0930480957031 183.76095581054688 L 502.181640625 179.47705078125 L 515.013916015625 179.47750854492188 L 527.0968627929688 183.7593994140625 L 537.0634765625 191.83633422851562 L 546.0527954101562 206.52615356445312 L 569.4154052734375 206.52615356445312 L 589.4154052734375 206.52615356445312 L 609.4154052734375 206.52615356445312 L 633.5001220703125 206.52615356445312 L 641.5614013671875 186.06890869140625 L 651.879638671875 172.45993041992188 L 665.4885864257812 162.14175415039062 L 685.94580078125 154.0804443359375 L 685.94580078125 129.99575805664062 L 685.94580078125 109.99575805664062 L 685.94580078125 86.55744934082031 L 674.5234375 79.86395263671875 L 668.1430053710938 73.4835205078125 L 661.4495239257812 62.06114196777344 L 638.01123046875 62.06114196777344 L 616.3828735351562 62.06114196777344 L 601.7694091796875 70.62353515625 L 588.8412475585938 68.40084838867188 L 580.3878173828125 58.37005615234375 L 580.3878173828125 45.252227783203125 L 588.8412475585938 35.221435546875 L 601.7694091796875 32.998748779296875 L 616.3828735351562 41.56114196777344 L 638.01123046875 41.56114196777344 L 660.9996948242188 41.56114196777344 L 673.990234375 24.35101318359375 L 689.4772338867188 17.141159057617188 L 706.53271484375 18.042877197265625 L 721.1732177734375 26.84564208984375 L 729.96826171875 41.487548828125 L 730.8641967773438 58.53865051269531 L 723.65625 74.01651000976562 L 706.44580078125 87.00729370117188 L 706.44580078125 109.99575805664062 L 706.44580078125 129.99575805664062 L 706.44580078125 154.00482177734375 L 733.333984375 165.14227294921875 L 750.7456665039062 147.73062133789062 L 759.1251831054688 134.97406005859375 L 770.859375 133.77182006835938 L 779.2001342773438 142.11257934570312 L 777.9978637695312 153.84677124023438 L 765.2413330078125 162.22628784179688 L 747.7343139648438 179.73333740234375 L 756.0756225585938 198.23980712890625 L 758.7880859375 213.39974975585938 L 757.72119140625 228.768310546875 L 752.9383544921875 243.412109375 L 744.731201171875 256.44354248046875 L 733.5868530273438 267.0861511230469 L 720.1928100585938 274.6841125488281 L 705.3414916992188 278.7886047363281 L 689.9474487304688 279.1471862792969 L 674.9171752929688 275.7371826171875 L 661.1801147460938 268.7673645019531 L 649.552001953125 258.6513977050781 L 640.7471923828125 246.01028442382812 L 633.5593872070312 227.02615356445312 L 609.4154052734375 227.02615356445312 L 589.4154052734375 227.02615356445312 L 569.4154052734375 227.02615356445312 L 546.181640625 227.02615356445312 L 535.3310546875 243.5108642578125 L 518.8463134765625 254.3614501953125 L 518.8463134765625 277.5952453613281 L 518.8463134765625 298.7793273925781 L 525.0017700195312 313.7676086425781 L 520.1827392578125 325.34246826171875 L 508.5963134765625 330.133544921875 L 497.0098876953125 325.34246826171875 L 492.19085693359375 313.7676086425781 L 498.3463134765625 298.7793273925781 L 498.3463134765625 277.5952453613281 L 498.3463134765625 255.10995483398438 L 470.26251220703125 227.02615356445312 L 447.7772216796875 227.02615356445312 L 427.7772216796875 227.02615356445312 L 406.5873107910156 227.02615356445312 L 391.6016845703125 233.2132568359375 L 376.61602783203125 227.02615356445312 L 355.4261474609375 227.02615356445312 L 331.3135986328125 227.02615356445312 L 324.3886413574219 244.93093872070312 L 316.16217041015625 256.7164001464844 L 305.3747253417969 266.1976013183594 L 292.6359558105469 272.84124755859375 L 278.6773986816406 276.2619934082031 L 264.3094482421875 276.26092529296875 L 250.359619140625 272.84112548828125 L 237.62060546875 266.1971740722656 L 226.8346405029297 256.7173156738281 L 218.60733032226562 244.930908203125 L 211.68235778808594 227.02615356445312 L 187.56982421875 227.02615356445312 L 167.56982421875 227.02615356445312 L 146.95509338378906 227.02615356445312 L 132.00962829589844 230.12115478515625 L 122.86219787597656 222.6739501953125 L 122.86219787597656 210.87832641601562 L 132.00962829589844 203.43112182617188 L 146.95509338378906 206.52615356445312 L 167.56982421875 206.52615356445312 L 187.56982421875 206.52615356445312 L 211.7390899658203 206.52615356445312 L 217.89566040039062 189.98123168945312 L 224.83273315429688 179.17919921875 L 233.90908813476562 170.1043701171875 L 244.7028350830078 163.17391967773438 L 261.24798583984375 157.01724243164062 L 261.24798583984375 132.84799194335938 L 261.24798583984375 112.84799194335938 L 261.24798583984375 86.91932678222656 L 245.99676513671875 86.73689270019531 L 239.60223388671875 83.92733764648438 L 236.7899627685547 77.52957153320312 L 236.6075439453125 62.27888488769531 L 210.6788787841797 62.27888488769531 L 190.6788787841797 62.27888488769531 L 170.6788787841797 62.27888488769531 L 148.7073974609375 62.27888488769531 L 134.6179656982422 72.6585693359375 L 121.06092071533203 72.6585693359375 L 106.97148132324219 62.27888488769531 L 85.0 62.27888488769531 L 65.0 62.27888488769531 L 45.0 62.27888488769531 L 25.0 62.27888488769531 z" style="fill:none; stroke:rgb(43%, 84%, 43%); stroke-width:1.0;"/>
<line x1="25.000000000000192" y1="40.77888046767413" x2="25.000000000000036" y2="63.2788804676743" stroke="rgb(0%, 0%, 100%)" stroke-width="1.0" />
<line x1="45.00000000000029" y1="40.7788804676743" x2="45.000000000000334" y2="63.27888046767407" stroke="rgb(0%, 0%, 100%)" stroke-width="1.0" />
<line x1="65.00000000000027" y1="40.778880467674185" x2="65.00000000000018" y2="63.2788804676743" stroke="rgb(0%, 0%, 100%)" stroke-width="1.0" />
<line x1="85.0000000000002" y1="40.77888046767441" x2="85.00000000000037" y2="63.278880467674185" stroke="rgb(0%, 0%, 100%)" stroke-width="1.0" />
<line x1="105.00000000000016" y1="40.77888046767441" x2="105.00000000000007" y2="63.2788804676743" stroke="rgb(0%, 0%, 100%)" stroke-width="1.0" />
<line x1="150.67888196613308" y1="40.7788804676743" x2="150.67888196613342" y2="63.2788804676743" stroke="rgb(0%, 0%, 100%)" stroke-width="1.0" />
<line x1="170.678881966133" y1="40.77888046767407" x2="170.6788819661334" y2="63.278880467674526" stroke="rgb(0%, 0%, 100%)" stroke-width="1.0" />
<line x1="190.67888196613362" y1="40.77888046767407" x2="190.67888196613367" y2="63.278880467674185" stroke="rgb(0%, 0%, 100%)" stroke-width="1.0" />
<line x1="210.67888196613356" y1="40.7788804676743" x2="210.6788819661335" y2="63.27888046767447" stroke="rgb(0%, 0%, 100%)" stroke-width="1.0" />
<line x1="230.67888196613296" y1="40.77888046767413" x2="230.67888196613262" y2="63.278880467674526" stroke="rgb(0%, 0%, 100%)" stroke-width="1.0" />
<line x1="312.3170933014295" y1="40.77888046767407" x2="312.31709330142974" y2="63.27888046767481" stroke="rgb(0%, 0%, 100%)" stroke-width="1.0" />
<line x1="332.31709330142996" y1="40.77888046767396" x2="332.3170933014296" y2="63.27888046767458" stroke="rgb(0%, 0%, 100%)" stroke-width="1.0" />
<line x1="352.3170933014299" y1="40.7788804676735" x2="352.31709330143036" y2="63.27888046767288" stroke="rgb(0%, 0%, 100%)" stroke-width="1.0" />
<line x1="372.31709330143" y1="40.77888046767373" x2="372.3170933014299" y2="63.27888046767373" stroke="rgb(0%, 0%, 100%)" stroke-width="1.0" />
<line x1="392.31709330142985" y1="40.778880467673275" x2="392.3170933014301" y2="63.27888046767305" stroke="rgb(0%, 0%, 100%)" stroke-width="1.0" />
<line x1="412.3170933014291" y1="40.7788804676735" x2="412.31709330143" y2="63.278880467673616" stroke="rgb(0%, 0%, 100%)" stroke-width="1.0" />
<line x1="432.31709330142974" y1="40.77888046767259" x2="432.3170933014296" y2="63.278880467673446" stroke="rgb(0%, 0%, 100%)" stroke-width="1.0" />
<line x1="452.31709330142985" y1="40.77888046767259" x2="452.3170933014302" y2="63.278880467673105" stroke="rgb(0%, 0%, 100%)" stroke-width="1.0" />
<line x1="472.31709330142985" y1="40.77888046767305" x2="472.3170933014302" y2="63.27888046767288" stroke="rgb(0%, 0%, 100%)" stroke-width="1.0" />
<line x1="282.74798763378107" y1="92.84798613532269" x2="260.24798763378163" y2="92.8479861353228" stroke="rgb(0%, 0%, 100%)" stroke-width="1.0" />
<line x1="282.74798763378163" y1="112.8479861353228" x2="260.24798763378163" y2="112.84798613532257" stroke="rgb(0%, 0%, 100%)" stroke-width="1.0" />
<line x1="282.747987633782" y1="132.84798613532234" x2="260.2479876337813" y2="132.84798613532269" stroke="rgb(0%, 0%, 100%)" stroke-width="1.0" />
<line x1="282.74798763378175" y1="152.84798613532286" x2="260.24798763378175" y2="152.84798613532269" stroke="rgb(0%, 0%, 100%)" stroke-width="1.0" />
<line x1="335.42614415440175" y1="205.52614265594252" x2="335.426144154402" y2="228.0261426559423" stroke="rgb(0%, 0%, 100%)" stroke-width="1.0" />
<line x1="355.4261441544013" y1="205.52614265594264" x2="355.42614415440164" y2="228.02614265594292" stroke="rgb(0%, 0%, 100%)" stroke-width="1.0" />
<line x1="375.42614415440124" y1="205.52614265594264" x2="375.42614415440124" y2="228.0261426559432" stroke="rgb(0%, 0%, 100%)" stroke-width="1.0" />
<line x1="407.77721701456693" y1="205.5261426559431" x2="407.7772170145674" y2="228.02614265594275" stroke="rgb(0%, 0%, 100%)" stroke-width="1.0" />
<line x1="427.7772170145674" y1="205.52614265594286" x2="427.7772170145675" y2="228.0261426559432" stroke="rgb(0%, 0%, 100%)" stroke-width="1.0" />
<line x1="447.7772170145666" y1="205.52614265594315" x2="447.777217014565" y2="228.02614265594286" stroke="rgb(0%, 0%, 100%)" stroke-width="1.0" />
<line x1="467.77721701456716" y1="205.52614265594218" x2="467.7772170145651" y2="228.02614265594434" stroke="rgb(0%, 0%, 100%)" stroke-width="1.0" />
<line x1="549.4154283498775" y1="205.52614265597902" x2="549.4154283498698" y2="228.02614265590103" stroke="rgb(0%, 0%, 100%)" stroke-width="1.0" />
<line x1="569.4154283498735" y1="205.5261426559988" x2="569.4154283498517" y2="228.02614265600732" stroke="rgb(0%, 0%, 100%)" stroke-width="1.0" />
<line x1="589.4154283498725" y1="205.5261426560104" x2="589.4154283498505" y2="228.02614265599937" stroke="rgb(0%, 0%, 100%)" stroke-width="1.0" />
<line x1="609.4154283498724" y1="205.52614265603597" x2="609.415428349846" y2="228.02614265607588" stroke="rgb(0%, 0%, 100%)" stroke-width="1.0" />
<line x1="629.4154283498732" y1="205.52614265605433" x2="629.4154283498509" y2="228.02614265606144" stroke="rgb(0%, 0%, 100%)" stroke-width="1.0" />
<line x1="684.9458149350301" y1="149.99575607100013" x2="707.4458149350321" y2="149.99575607102196" stroke="rgb(0%, 0%, 100%)" stroke-width="1.0" />
<line x1="684.9458149350482" y1="129.9957560709987" x2="707.4458149350485" y2="129.99575607101872" stroke="rgb(0%, 0%, 100%)" stroke-width="1.0" />
<line x1="684.945814935066" y1="109.99575607099746" x2="707.4458149350678" y2="109.99575607102031" stroke="rgb(0%, 0%, 100%)" stroke-width="1.0" />
<line x1="684.9458149350871" y1="89.99575607100002" x2="707.4458149350858" y2="89.99575607101951" stroke="rgb(0%, 0%, 100%)" stroke-width="1.0" />
<line x1="658.0112000754142" y1="63.0611412113027" x2="658.0112000754137" y2="40.56114121130315" stroke="rgb(0%, 0%, 100%)" stroke-width="1.0" />
<line x1="638.0112000754118" y1="63.061141211295535" x2="638.0112000754139" y2="40.561141211304175" stroke="rgb(0%, 0%, 100%)" stroke-width="1.0" />
<line x1="618.0112000754144" y1="63.061141211304516" x2="618.0112000754126" y2="40.56114121130531" stroke="rgb(0%, 0%, 100%)" stroke-width="1.0" />
<line x1="735.4617278511128" y1="161.60032716311287" x2="751.3716304278357" y2="177.51022973978183" stroke="rgb(0%, 0%, 100%)" stroke-width="1.0" />
<line x1="749.6038634748217" y1="147.45819153935872" x2="765.5137660515433" y2="163.36809411601905" stroke="rgb(0%, 0%, 100%)" stroke-width="1.0" />
<line x1="519.8463226822153" y1="257.5952483235897" x2="497.3463226822145" y2="257.5952483235919" stroke="rgb(0%, 0%, 100%)" stroke-width="1.0" />
<line x1="519.8463226822153" y1="277.59524832359443" x2="497.3463226822145" y2="277.5952483235927" stroke="rgb(0%, 0%, 100%)" stroke-width="1.0" />
<line x1="519.8463226822132" y1="297.5952483235844" x2="497.34632268221475" y2="297.5952483235901" stroke="rgb(0%, 0%, 100%)" stroke-width="1.0" />
<line x1="207.569831113162" y1="228.02614265594207" x2="207.56983111316183" y2="205.52614265594286" stroke="rgb(0%, 0%, 100%)" stroke-width="1.0" />
<line x1="187.56983111316205" y1="228.02614265594138" x2="187.56983111316222" y2="205.52614265594127" stroke="rgb(0%, 0%, 100%)" stroke-width="1.0" />
<line x1="167.56983111316168" y1="228.02614265594173" x2="167.56983111316225" y2="205.52614265594116" stroke="rgb(0%, 0%, 100%)" stroke-width="1.0" />
<line x1="147.5698311131619" y1="228.0261426559415" x2="147.56983111316237" y2="205.52614265594104" stroke="rgb(0%, 0%, 100%)" stroke-width="1.0" />
<text x="25.000000000000227" y="38.77888046767413" text-anchor="middle" font-family="Verdana" font-size="7.5" fill="rgb(0%, 0%, 0%)" >G</text>
<text x="45.000000000000284" y="38.7788804676743" text-anchor="middle" font-family="Verdana" font-size="7.5" fill="rgb(0%, 0%, 0%)" >G</text>
<text x="65.00000000000028" y="38.778880467674185" text-anchor="middle" font-family="Verdana" font-size="7.5" fill="rgb(0%, 0%, 0%)" >U</text>
<text x="85.00000000000017" y="38.77888046767441" text-anchor="middle" font-family="Verdana" font-size="7.5" fill="rgb(0%, 0%, 0%)" >U</text>
<text x="105.00000000000017" y="38.77888046767441" text-anchor="middle" font-family="Verdana" font-size="7.5" fill="rgb(0%, 0%, 0%)" >G</text>
<text x="119.08943922113104" y="28.3991971502727" text-anchor="middle" font-family="Verdana" font-size="7.5" fill="rgb(0%, 0%, 0%)" >G</text>
<text x="136.58944274500192" y="28.3991971502727" text-anchor="middle" font-family="Verdana" font-size="7.5" fill="rgb(0%, 0%, 0%)" >G</text>
<text x="150.67888196613302" y="38.7788804676743" text-anchor="middle" font-family="Verdana" font-size="7.5" fill="rgb(0%, 0%, 0%)" >U</text>
<text x="170.6788819661329" y="38.77888046767407" text-anchor="middle" font-family="Verdana" font-size="7.5" fill="rgb(0%, 0%, 0%)" >U</text>
<text x="190.6788819661336" y="38.77888046767407" text-anchor="middle" font-family="Verdana" font-size="7.5" fill="rgb(0%, 0%, 0%)" >G</text>
<text x="210.6788819661336" y="38.7788804676743" text-anchor="middle" font-family="Verdana" font-size="7.5" fill="rgb(0%, 0%, 0%)" >G</text>
<text x="230.67888196613302" y="38.77888046767413" text-anchor="middle" font-family="Verdana" font-size="7.5" fill="rgb(0%, 0%, 0%)" >G</text>
<text x="254.49755069980102" y="14.516573306018074" text-anchor="middle" font-family="Verdana" font-size="7.5" fill="rgb(0%, 0%, 0%)" >A</text>
<text x="288.4984245677619" y="14.516573306017676" text-anchor="middle" font-family="Verdana" font-size="7.5" fill="rgb(0%, 0%, 0%)" >A</text>
<text x="312.31709330142945" y="38.77888046767407" text-anchor="middle" font-family="Verdana" font-size="7.5" fill="rgb(0%, 0%, 0%)" >G</text>
<text x="332.31709330143" y="38.77888046767396" text-anchor="middle" font-family="Verdana" font-size="7.5" fill="rgb(0%, 0%, 0%)" >U</text>
<text x="352.3170933014298" y="38.7788804676735" text-anchor="middle" font-family="Verdana" font-size="7.5" fill="rgb(0%, 0%, 0%)" >A</text>
<text x="372.31709330143" y="38.77888046767373" text-anchor="middle" font-family="Verdana" font-size="7.5" fill="rgb(0%, 0%, 0%)" >U</text>
<text x="392.3170933014298" y="38.778880467673275" text-anchor="middle" font-family="Verdana" font-size="7.5" fill="rgb(0%, 0%, 0%)" >C</text>
<text x="412.3170933014289" y="38.7788804676735" text-anchor="middle" font-family="Verdana" font-size="7.5" fill="rgb(0%, 0%, 0%)" >A</text>
<text x="432.3170933014298" y="38.77888046767259" text-anchor="middle" font-family="Verdana" font-size="7.5" fill="rgb(0%, 0%, 0%)" >U</text>
<text x="452.3170933014298" y="38.77888046767259" text-anchor="middle" font-family="Verdana" font-size="7.5" fill="rgb(0%, 0%, 0%)" >G</text>
<text x="472.3170933014298" y="38.77888046767305" text-anchor="middle" font-family="Verdana" font-size="7.5" fill="rgb(0%, 0%, 0%)" >G</text>
<text x="486.35291483051395" y="28.32680381122759" text-anchor="middle" font-family="Verdana" font-size="7.5" fill="rgb(0%, 0%, 0%)" >C</text>
<text x="503.8523025512938" y="28.179760190876323" text-anchor="middle" font-family="Verdana" font-size="7.5" fill="rgb(0%, 0%, 0%)" >U</text>
<text x="518.0617829083535" y="38.39449760359577" text-anchor="middle" font-family="Verdana" font-size="7.5" fill="rgb(0%, 0%, 0%)" >A</text>
<text x="523.4975440473117" y="55.02888046767447" text-anchor="middle" font-family="Verdana" font-size="7.5" fill="rgb(0%, 0%, 0%)" >A</text>
<text x="518.0617829083544" y="71.66326333174976" text-anchor="middle" font-family="Verdana" font-size="7.5" fill="rgb(0%, 0%, 0%)" >U</text>
<text x="503.85230255129403" y="81.8780007444696" text-anchor="middle" font-family="Verdana" font-size="7.5" fill="rgb(0%, 0%, 0%)" >C</text>
<text x="486.35291483051395" y="81.73095712411748" text-anchor="middle" font-family="Verdana" font-size="7.5" fill="rgb(0%, 0%, 0%)" >A</text>
<text x="472.31709330143025" y="71.27888046767288" text-anchor="middle" font-family="Verdana" font-size="7.5" fill="rgb(0%, 0%, 0%)" >C</text>
<text x="452.31709330143025" y="71.2788804676731" text-anchor="middle" font-family="Verdana" font-size="7.5" fill="rgb(0%, 0%, 0%)" >C</text>
<text x="432.31709330142957" y="71.27888046767345" text-anchor="middle" font-family="Verdana" font-size="7.5" fill="rgb(0%, 0%, 0%)" >A</text>
<text x="412.31709330143025" y="71.27888046767362" text-anchor="middle" font-family="Verdana" font-size="7.5" fill="rgb(0%, 0%, 0%)" >U</text>
<text x="392.31709330143013" y="71.27888046767305" text-anchor="middle" font-family="Verdana" font-size="7.5" fill="rgb(0%, 0%, 0%)" >G</text>
<text x="372.3170933014299" y="71.27888046767373" text-anchor="middle" font-family="Verdana" font-size="7.5" fill="rgb(0%, 0%, 0%)" >A</text>
<text x="352.3170933014305" y="71.27888046767288" text-anchor="middle" font-family="Verdana" font-size="7.5" fill="rgb(0%, 0%, 0%)" >U</text>
<text x="332.31709330142957" y="71.27888046767458" text-anchor="middle" font-family="Verdana" font-size="7.5" fill="rgb(0%, 0%, 0%)" >G</text>
<text x="312.3170933014298" y="71.27888046767481" text-anchor="middle" font-family="Verdana" font-size="7.5" fill="rgb(0%, 0%, 0%)" >C</text>
<text x="306.4767514963568" y="81.61361229165209" text-anchor="middle" font-family="Verdana" font-size="7.5" fill="rgb(0%, 0%, 0%)" >A</text>
<text x="298.0827194577586" y="90.0076443302504" text-anchor="middle" font-family="Verdana" font-size="7.5" fill="rgb(0%, 0%, 0%)" >A</text>
<text x="287.74798763378107" y="95.84798613532269" text-anchor="middle" font-family="Verdana" font-size="7.5" fill="rgb(0%, 0%, 0%)" >U</text>
<text x="287.74798763378163" y="115.84798613532286" text-anchor="middle" font-family="Verdana" font-size="7.5" fill="rgb(0%, 0%, 0%)" >C</text>
<text x="287.747987633782" y="135.84798613532223" text-anchor="middle" font-family="Verdana" font-size="7.5" fill="rgb(0%, 0%, 0%)" >G</text>
<text x="287.74798763378175" y="155.84798613532286" text-anchor="middle" font-family="Verdana" font-size="7.5" fill="rgb(0%, 0%, 0%)" >G</text>
<text x="318.13955544686536" y="173.13457484285902" text-anchor="middle" font-family="Verdana" font-size="7.5" fill="rgb(0%, 0%, 0%)" >G</text>
<text x="335.4261441544017" y="203.52614265594252" text-anchor="middle" font-family="Verdana" font-size="7.5" fill="rgb(0%, 0%, 0%)" >U</text>
<text x="355.42614415440124" y="203.52614265594264" text-anchor="middle" font-family="Verdana" font-size="7.5" fill="rgb(0%, 0%, 0%)" >U</text>
<text x="375.42614415440124" y="203.52614265594264" text-anchor="middle" font-family="Verdana" font-size="7.5" fill="rgb(0%, 0%, 0%)" >G</text>
<text x="391.6016805844849" y="196.84776550445326" text-anchor="middle" font-family="Verdana" font-size="7.5" fill="rgb(0%, 0%, 0%)" >A</text>
<text x="407.7772170145668" y="203.5261426559431" text-anchor="middle" font-family="Verdana" font-size="7.5" fill="rgb(0%, 0%, 0%)" >A</text>
<text x="427.7772170145674" y="203.52614265594286" text-anchor="middle" font-family="Verdana" font-size="7.5" fill="rgb(0%, 0%, 0%)" >C</text>
<text x="447.77721701456693" y="203.52614265594315" text-anchor="middle" font-family="Verdana" font-size="7.5" fill="rgb(0%, 0%, 0%)" >A</text>
<text x="467.7772170145676" y="203.52614265594218" text-anchor="middle" font-family="Verdana" font-size="7.5" fill="rgb(0%, 0%, 0%)" >C</text>
<text x="475.5499392771516" y="190.82448585788967" text-anchor="middle" font-family="Verdana" font-size="7.5" fill="rgb(0%, 0%, 0%)" >U</text>
<text x="487.1165975720589" y="181.45012933993405" text-anchor="middle" font-family="Verdana" font-size="7.5" fill="rgb(0%, 0%, 0%)" >U</text>
<text x="501.15003527490893" y="176.47701227951933" text-anchor="middle" font-family="Verdana" font-size="7.5" fill="rgb(0%, 0%, 0%)" >A</text>
<text x="516.0457342586071" y="176.47754966873083" text-anchor="middle" font-family="Verdana" font-size="7.5" fill="rgb(0%, 0%, 0%)" >A</text>
<text x="530.0732128964908" y="181.44854066689766" text-anchor="middle" font-family="Verdana" font-size="7.5" fill="rgb(0%, 0%, 0%)" >U</text>
<text x="541.642706087305" y="190.82448585791985" text-anchor="middle" font-family="Verdana" font-size="7.5" fill="rgb(0%, 0%, 0%)" >U</text>
<text x="549.4154283498792" y="203.52614265597902" text-anchor="middle" font-family="Verdana" font-size="7.5" fill="rgb(0%, 0%, 0%)" >G</text>
<text x="569.4154283498783" y="203.5261426559988" text-anchor="middle" font-family="Verdana" font-size="7.5" fill="rgb(0%, 0%, 0%)" >G</text>
<text x="589.4154283498774" y="203.5261426560104" text-anchor="middle" font-family="Verdana" font-size="7.5" fill="rgb(0%, 0%, 0%)" >G</text>
<text x="609.4154283498783" y="203.52614265603597" text-anchor="middle" font-family="Verdana" font-size="7.5" fill="rgb(0%, 0%, 0%)" >U</text>
<text x="629.4154283498781" y="203.52614265605433" text-anchor="middle" font-family="Verdana" font-size="7.5" fill="rgb(0%, 0%, 0%)" >U</text>
<text x="636.2817197870954" y="186.1014676752386" text-anchor="middle" font-family="Verdana" font-size="7.5" fill="rgb(0%, 0%, 0%)" >A</text>
<text x="647.5970364912303" y="171.17736421228813" text-anchor="middle" font-family="Verdana" font-size="7.5" fill="rgb(0%, 0%, 0%)" >A</text>
<text x="662.5211399542052" y="159.8620475081823" text-anchor="middle" font-family="Verdana" font-size="7.5" fill="rgb(0%, 0%, 0%)" >A</text>
<text x="679.9458149350301" y="152.9957560709953" text-anchor="middle" font-family="Verdana" font-size="7.5" fill="rgb(0%, 0%, 0%)" >A</text>
<text x="679.9458149350482" y="132.99575607099428" text-anchor="middle" font-family="Verdana" font-size="7.5" fill="rgb(0%, 0%, 0%)" >C</text>
<text x="679.945814935066" y="112.99575607099234" text-anchor="middle" font-family="Verdana" font-size="7.5" fill="rgb(0%, 0%, 0%)" >G</text>
<text x="679.9458149350871" y="92.99575607099564" text-anchor="middle" font-family="Verdana" font-size="7.5" fill="rgb(0%, 0%, 0%)" >G</text>
<text x="670.8254038105918" y="87.6512013719746" text-anchor="middle" font-family="Verdana" font-size="7.5" fill="rgb(0%, 0%, 0%)" >U</text>
<text x="663.3557547744269" y="80.1815523358033" text-anchor="middle" font-family="Verdana" font-size="7.5" fill="rgb(0%, 0%, 0%)" >G</text>
<text x="658.0112000754143" y="71.0611412113027" text-anchor="middle" font-family="Verdana" font-size="7.5" fill="rgb(0%, 0%, 0%)" >G</text>
<text x="638.0112000754114" y="71.06114121129553" text-anchor="middle" font-family="Verdana" font-size="7.5" fill="rgb(0%, 0%, 0%)" >G</text>
<text x="618.0112000754148" y="71.06114121130452" text-anchor="middle" font-family="Verdana" font-size="7.5" fill="rgb(0%, 0%, 0%)" >G</text>
<text x="602.9121434628307" y="79.90804130280725" text-anchor="middle" font-family="Verdana" font-size="7.5" fill="rgb(0%, 0%, 0%)" >G</text>
<text x="585.6652100993117" y="76.94283618791064" text-anchor="middle" font-family="Verdana" font-size="7.5" fill="rgb(0%, 0%, 0%)" >A</text>
<text x="574.3878404111583" y="63.56112909442521" text-anchor="middle" font-family="Verdana" font-size="7.5" fill="rgb(0%, 0%, 0%)" >C</text>
<text x="574.3878404111597" y="46.06115332818331" text-anchor="middle" font-family="Verdana" font-size="7.5" fill="rgb(0%, 0%, 0%)" >G</text>
<text x="585.6652100993099" y="32.67944623469788" text-anchor="middle" font-family="Verdana" font-size="7.5" fill="rgb(0%, 0%, 0%)" >A</text>
<text x="602.91214346283" y="29.714241119800135" text-anchor="middle" font-family="Verdana" font-size="7.5" fill="rgb(0%, 0%, 0%)" >U</text>
<text x="618.0112000754123" y="38.56114121130531" text-anchor="middle" font-family="Verdana" font-size="7.5" fill="rgb(0%, 0%, 0%)" >C</text>
<text x="638.0112000754143" y="38.561141211304175" text-anchor="middle" font-family="Verdana" font-size="7.5" fill="rgb(0%, 0%, 0%)" >C</text>
<text x="658.0112000754136" y="38.56114121130315" text-anchor="middle" font-family="Verdana" font-size="7.5" fill="rgb(0%, 0%, 0%)" >C</text>
<text x="670.1022302461581" y="22.54270229548183" text-anchor="middle" font-family="Verdana" font-size="7.5" fill="rgb(0%, 0%, 0%)" >G</text>
<text x="688.300635713387" y="14.070578414001147" text-anchor="middle" font-family="Verdana" font-size="7.5" fill="rgb(0%, 0%, 0%)" >U</text>
<text x="708.3428151100384" y="15.130192397862402" text-anchor="middle" font-family="Verdana" font-size="7.5" fill="rgb(0%, 0%, 0%)" >A</text>
<text x="725.5465885739334" y="25.474144112289025" text-anchor="middle" font-family="Verdana" font-size="7.5" fill="rgb(0%, 0%, 0%)" >A</text>
<text x="735.8815154767603" y="42.67967450262779" text-anchor="middle" font-family="Verdana" font-size="7.5" fill="rgb(0%, 0%, 0%)" >C</text>
<text x="736.9343945976145" y="62.71654689772862" text-anchor="middle" font-family="Verdana" font-size="7.5" fill="rgb(0%, 0%, 0%)" >A</text>
<text x="728.4642538509188" y="80.90472590029776" text-anchor="middle" font-family="Verdana" font-size="7.5" fill="rgb(0%, 0%, 0%)" >U</text>
<text x="712.4458149350858" y="92.99575607102389" text-anchor="middle" font-family="Verdana" font-size="7.5" fill="rgb(0%, 0%, 0%)" >C</text>
<text x="712.4458149350678" y="112.99575607102543" text-anchor="middle" font-family="Verdana" font-size="7.5" fill="rgb(0%, 0%, 0%)" >C</text>
<text x="712.4458149350485" y="132.99575607102315" text-anchor="middle" font-family="Verdana" font-size="7.5" fill="rgb(0%, 0%, 0%)" >G</text>
<text x="712.4458149350321" y="152.9957560710268" text-anchor="middle" font-family="Verdana" font-size="7.5" fill="rgb(0%, 0%, 0%)" >U</text>
<text x="731.926193945174" y="161.06479325718612" text-anchor="middle" font-family="Verdana" font-size="7.5" fill="rgb(0%, 0%, 0%)" >C</text>
<text x="746.0683295688821" y="146.92265763343278" text-anchor="middle" font-family="Verdana" font-size="7.5" fill="rgb(0%, 0%, 0%)" >C</text>
<text x="755.6762916488935" y="132.29602725369045" text-anchor="middle" font-family="Verdana" font-size="7.5" fill="rgb(0%, 0%, 0%)" >U</text>
<text x="773.0851923332596" y="130.5123713007394" text-anchor="middle" font-family="Verdana" font-size="7.5" fill="rgb(0%, 0%, 0%)" >A</text>
<text x="785.459586290086" y="142.8867652575217" text-anchor="middle" font-family="Verdana" font-size="7.5" fill="rgb(0%, 0%, 0%)" >A</text>
<text x="783.6759303371991" y="160.29566594190504" text-anchor="middle" font-family="Verdana" font-size="7.5" fill="rgb(0%, 0%, 0%)" >C</text>
<text x="769.0492999574828" y="169.903628021945" text-anchor="middle" font-family="Verdana" font-size="7.5" fill="rgb(0%, 0%, 0%)" >G</text>
<text x="754.9071643337745" y="184.04576364570858" text-anchor="middle" font-family="Verdana" font-size="7.5" fill="rgb(0%, 0%, 0%)" >G</text>
<text x="761.8509693355111" y="199.4516935102253" text-anchor="middle" font-family="Verdana" font-size="7.5" fill="rgb(0%, 0%, 0%)" >C</text>
<text x="764.8250954204264" y="216.07419823652822" text-anchor="middle" font-family="Verdana" font-size="7.5" fill="rgb(0%, 0%, 0%)" >G</text>
<text x="763.6553700369675" y="232.92494328095643" text-anchor="middle" font-family="Verdana" font-size="7.5" fill="rgb(0%, 0%, 0%)" >A</text>
<text x="758.4112074746479" y="248.98106456252617" text-anchor="middle" font-family="Verdana" font-size="7.5" fill="rgb(0%, 0%, 0%)" >C</text>
<text x="749.4123288197438" y="263.26965001494386" text-anchor="middle" font-family="Verdana" font-size="7.5" fill="rgb(0%, 0%, 0%)" >A</text>
<text x="737.1934624821399" y="274.9384071855442" text-anchor="middle" font-family="Verdana" font-size="7.5" fill="rgb(0%, 0%, 0%)" >G</text>
<text x="722.5071480216682" y="283.26942012400605" text-anchor="middle" font-family="Verdana" font-size="7.5" fill="rgb(0%, 0%, 0%)" >A</text>
<text x="706.2238166036568" y="287.7696843710829" text-anchor="middle" font-family="Verdana" font-size="7.5" fill="rgb(0%, 0%, 0%)" >C</text>
<text x="689.3444510819136" y="288.1628471078218" text-anchor="middle" font-family="Verdana" font-size="7.5" fill="rgb(0%, 0%, 0%)" >U</text>
<text x="672.8650173096969" y="284.4240847314969" text-anchor="middle" font-family="Verdana" font-size="7.5" fill="rgb(0%, 0%, 0%)" >G</text>
<text x="657.8026698368042" y="276.78183484459" text-anchor="middle" font-family="Verdana" font-size="7.5" fill="rgb(0%, 0%, 0%)" >C</text>
<text x="645.0532641391476" y="265.690432703076" text-anchor="middle" font-family="Verdana" font-size="7.5" fill="rgb(0%, 0%, 0%)" >A</text>
<text x="635.3990542237186" y="251.82979173767012" text-anchor="middle" font-family="Verdana" font-size="7.5" fill="rgb(0%, 0%, 0%)" >C</text>
<text x="629.415428349846" y="236.02614265606144" text-anchor="middle" font-family="Verdana" font-size="7.5" fill="rgb(0%, 0%, 0%)" >G</text>
<text x="609.4154283498401" y="236.02614265607588" text-anchor="middle" font-family="Verdana" font-size="7.5" fill="rgb(0%, 0%, 0%)" >G</text>
<text x="589.4154283498456" y="236.02614265599937" text-anchor="middle" font-family="Verdana" font-size="7.5" fill="rgb(0%, 0%, 0%)" >C</text>
<text x="569.4154283498469" y="236.02614265600732" text-anchor="middle" font-family="Verdana" font-size="7.5" fill="rgb(0%, 0%, 0%)" >C</text>
<text x="549.4154283498681" y="236.02614265590103" text-anchor="middle" font-family="Verdana" font-size="7.5" fill="rgb(0%, 0%, 0%)" >C</text>
<text x="539.6628793590355" y="250.8426993327347" text-anchor="middle" font-family="Verdana" font-size="7.5" fill="rgb(0%, 0%, 0%)" >U</text>
<text x="524.8463226822153" y="260.5952483235892" text-anchor="middle" font-family="Verdana" font-size="7.5" fill="rgb(0%, 0%, 0%)" >G</text>
<text x="524.8463226822153" y="280.5952483235948" text-anchor="middle" font-family="Verdana" font-size="7.5" fill="rgb(0%, 0%, 0%)" >C</text>
<text x="524.8463226822132" y="300.5952483235832" text-anchor="middle" font-family="Verdana" font-size="7.5" fill="rgb(0%, 0%, 0%)" >C</text>
<text x="531.494492287032" y="316.78328862324156" text-anchor="middle" font-family="Verdana" font-size="7.5" fill="rgb(0%, 0%, 0%)" >U</text>
<text x="524.7682730309921" y="332.9390548494977" text-anchor="middle" font-family="Verdana" font-size="7.5" fill="rgb(0%, 0%, 0%)" >C</text>
<text x="508.5963226822134" y="339.6262687502458" text-anchor="middle" font-family="Verdana" font-size="7.5" fill="rgb(0%, 0%, 0%)" >U</text>
<text x="492.4243723334361" y="332.9390548495003" text-anchor="middle" font-family="Verdana" font-size="7.5" fill="rgb(0%, 0%, 0%)" >U</text>
<text x="485.6981530773964" y="316.7832886232454" text-anchor="middle" font-family="Verdana" font-size="7.5" fill="rgb(0%, 0%, 0%)" >A</text>
<text x="492.34632268221475" y="300.59524832359136" text-anchor="middle" font-family="Verdana" font-size="7.5" fill="rgb(0%, 0%, 0%)" >G</text>
<text x="492.3463226822145" y="280.5952483235924" text-anchor="middle" font-family="Verdana" font-size="7.5" fill="rgb(0%, 0%, 0%)" >G</text>
<text x="492.3463226822145" y="260.5952483235924" text-anchor="middle" font-family="Verdana" font-size="7.5" fill="rgb(0%, 0%, 0%)" >U</text>
<text x="467.77721701456466" y="236.02614265594434" text-anchor="middle" font-family="Verdana" font-size="7.5" fill="rgb(0%, 0%, 0%)" >G</text>
<text x="447.77721701456466" y="236.02614265594286" text-anchor="middle" font-family="Verdana" font-size="7.5" fill="rgb(0%, 0%, 0%)" >U</text>
<text x="427.7772170145675" y="236.0261426559432" text-anchor="middle" font-family="Verdana" font-size="7.5" fill="rgb(0%, 0%, 0%)" >G</text>
<text x="407.7772170145675" y="236.02614265594275" text-anchor="middle" font-family="Verdana" font-size="7.5" fill="rgb(0%, 0%, 0%)" >U</text>
<text x="391.6016805844835" y="242.7045198074319" text-anchor="middle" font-family="Verdana" font-size="7.5" fill="rgb(0%, 0%, 0%)" >U</text>
<text x="375.42614415440124" y="236.0261426559432" text-anchor="middle" font-family="Verdana" font-size="7.5" fill="rgb(0%, 0%, 0%)" >C</text>
<text x="355.4261441544017" y="236.02614265594292" text-anchor="middle" font-family="Verdana" font-size="7.5" fill="rgb(0%, 0%, 0%)" >A</text>
<text x="335.42614415440204" y="236.0261426559423" text-anchor="middle" font-family="Verdana" font-size="7.5" fill="rgb(0%, 0%, 0%)" >A</text>
<text x="329.7233088976445" y="250.77103997541883" text-anchor="middle" font-family="Verdana" font-size="7.5" fill="rgb(0%, 0%, 0%)" >U</text>
<text x="320.66740585086205" y="263.7447679280466" text-anchor="middle" font-family="Verdana" font-size="7.5" fill="rgb(0%, 0%, 0%)" >G</text>
<text x="308.7915858907151" y="274.1825689783482" text-anchor="middle" font-family="Verdana" font-size="7.5" fill="rgb(0%, 0%, 0%)" >A</text>
<text x="294.7679324972025" y="281.4963286746045" text-anchor="middle" font-family="Verdana" font-size="7.5" fill="rgb(0%, 0%, 0%)" >A</text>
<text x="279.4016482793741" y="285.26204834964255" text-anchor="middle" font-family="Verdana" font-size="7.5" fill="rgb(0%, 0%, 0%)" >C</text>
<text x="263.58450117095975" y="285.2608616988426" text-anchor="middle" font-family="Verdana" font-size="7.5" fill="rgb(0%, 0%, 0%)" >A</text>
<text x="248.22739414025608" y="281.49608412208397" text-anchor="middle" font-family="Verdana" font-size="7.5" fill="rgb(0%, 0%, 0%)" >G</text>
<text x="234.20373329613227" y="274.1821192534045" text-anchor="middle" font-family="Verdana" font-size="7.5" fill="rgb(0%, 0%, 0%)" >U</text>
<text x="222.32942259114196" y="263.7457220009006" text-anchor="middle" font-family="Verdana" font-size="7.5" fill="rgb(0%, 0%, 0%)" >C</text>
<text x="213.27266636991925" y="250.77103997541883" text-anchor="middle" font-family="Verdana" font-size="7.5" fill="rgb(0%, 0%, 0%)" >G</text>
<text x="207.56983111316202" y="236.02614265594207" text-anchor="middle" font-family="Verdana" font-size="7.5" fill="rgb(0%, 0%, 0%)" >U</text>
<text x="187.56983111316202" y="236.02614265594138" text-anchor="middle" font-family="Verdana" font-size="7.5" fill="rgb(0%, 0%, 0%)" >U</text>
<text x="167.56983111316157" y="236.02614265594173" text-anchor="middle" font-family="Verdana" font-size="7.5" fill="rgb(0%, 0%, 0%)" >C</text>
<text x="147.5698311131618" y="236.0261426559415" text-anchor="middle" font-family="Verdana" font-size="7.5" fill="rgb(0%, 0%, 0%)" >C</text>
<text x="130.43338644557042" y="239.5748770431805" text-anchor="middle" font-family="Verdana" font-size="7.5" fill="rgb(0%, 0%, 0%)" >G</text>
<text x="116.86219949903722" y="228.52616053587434" text-anchor="middle" font-family="Verdana" font-size="7.5" fill="rgb(0%, 0%, 0%)" >A</text>
<text x="116.86219949903722" y="211.02612477600815" text-anchor="middle" font-family="Verdana" font-size="7.5" fill="rgb(0%, 0%, 0%)" >A</text>
<text x="130.43338644557087" y="199.9774082687033" text-anchor="middle" font-family="Verdana" font-size="7.5" fill="rgb(0%, 0%, 0%)" >A</text>
<text x="147.56983111316248" y="203.52614265594104" text-anchor="middle" font-family="Verdana" font-size="7.5" fill="rgb(0%, 0%, 0%)" >G</text>
<text x="167.56983111316237" y="203.52614265594116" text-anchor="middle" font-family="Verdana" font-size="7.5" fill="rgb(0%, 0%, 0%)" >G</text>
<text x="187.56983111316225" y="203.52614265594127" text-anchor="middle" font-family="Verdana" font-size="7.5" fill="rgb(0%, 0%, 0%)" >A</text>
<text x="207.5698311131618" y="203.52614265594286" text-anchor="middle" font-family="Verdana" font-size="7.5" fill="rgb(0%, 0%, 0%)" >A</text>
<text x="212.49780092228383" y="190.28292879015203" text-anchor="middle" font-family="Verdana" font-size="7.5" fill="rgb(0%, 0%, 0%)" >G</text>
<text x="220.13339257026183" y="178.3931742983507" text-anchor="middle" font-family="Verdana" font-size="7.5" fill="rgb(0%, 0%, 0%)" >C</text>
<text x="230.12366786367664" y="168.40458087623824" text-anchor="middle" font-family="Verdana" font-size="7.5" fill="rgb(0%, 0%, 0%)" >A</text>
<text x="242.00477376799125" y="160.77595594444472" text-anchor="middle" font-family="Verdana" font-size="7.5" fill="rgb(0%, 0%, 0%)" >U</text>
<text x="255.24798763378175" y="155.84798613532269" text-anchor="middle" font-family="Verdana" font-size="7.5" fill="rgb(0%, 0%, 0%)" >C</text>
<text x="255.2479876337813" y="135.8479861353228" text-anchor="middle" font-family="Verdana" font-size="7.5" fill="rgb(0%, 0%, 0%)" >C</text>
<text x="255.24798763378163" y="115.84798613532251" text-anchor="middle" font-family="Verdana" font-size="7.5" fill="rgb(0%, 0%, 0%)" >G</text>
<text x="255.24798763378163" y="95.8479861353228" text-anchor="middle" font-family="Verdana" font-size="7.5" fill="rgb(0%, 0%, 0%)" >G</text>
<text x="244.70253213299583" y="95.72184381215061" text-anchor="middle" font-family="Verdana" font-size="7.5" fill="rgb(0%, 0%, 0%)" >U</text>
<text x="235.04966901945107" y="91.48067784976126" text-anchor="middle" font-family="Verdana" font-size="7.5" fill="rgb(0%, 0%, 0%)" >A</text>
<text x="230.80502428930566" y="81.82433596845999" text-anchor="middle" font-family="Verdana" font-size="7.5" fill="rgb(0%, 0%, 0%)" >U</text>
<text x="230.67888196613256" y="71.27888046767453" text-anchor="middle" font-family="Verdana" font-size="7.5" fill="rgb(0%, 0%, 0%)" >C</text>
<text x="210.67888196613347" y="71.27888046767447" text-anchor="middle" font-family="Verdana" font-size="7.5" fill="rgb(0%, 0%, 0%)" >C</text>
<text x="190.6788819661337" y="71.27888046767418" text-anchor="middle" font-family="Verdana" font-size="7.5" fill="rgb(0%, 0%, 0%)" >C</text>
<text x="170.67888196613347" y="71.27888046767453" text-anchor="middle" font-family="Verdana" font-size="7.5" fill="rgb(0%, 0%, 0%)" >A</text>
<text x="150.67888196613347" y="71.2788804676743" text-anchor="middle" font-family="Verdana" font-size="7.5" fill="rgb(0%, 0%, 0%)" >A</text>
<text x="136.58944274500215" y="81.65856378507613" text-anchor="middle" font-family="Verdana" font-size="7.5" fill="rgb(0%, 0%, 0%)" >G</text>
<text x="119.0894392211315" y="81.6585637850759" text-anchor="middle" font-family="Verdana" font-size="7.5" fill="rgb(0%, 0%, 0%)" >A</text>
<text x="105.00000000000006" y="71.2788804676743" text-anchor="middle" font-family="Verdana" font-size="7.5" fill="rgb(0%, 0%, 0%)" >C</text>
<text x="85.0000000000004" y="71.27888046767418" text-anchor="middle" font-family="Verdana" font-size="7.5" fill="rgb(0%, 0%, 0%)" >A</text>
<text x="65.00000000000017" y="71.2788804676743" text-anchor="middle" font-family="Verdana" font-size="7.5" fill="rgb(0%, 0%, 0%)" >A</text>
<text x="45.00000000000034" y="71.27888046767407" text-anchor="middle" font-family="Verdana" font-size="7.5" fill="rgb(0%, 0%, 0%)" >U</text>
<text x="25.0" y="71.2788804676743" text-anchor="middle" font-family="Verdana" font-size="7.5" fill="rgb(0%, 0%, 0%)" >C</text>
<line x1="17.500000000000227" y1="35.77888046767407" x2="12.500000000000227" y2="35.778880467674014" stroke="rgb(25%, 25%, 25%)" stroke-width="1.0" />
<text x="5.000000000000227" y="38.77888046767396" text-anchor="middle" font-family="Verdana" font-size="7.5" fill="rgb(25%, 25%, 25%)" >1</text>
<line x1="190.67888196613364" y1="28.27888046767407" x2="190.67888196613367" y2="23.27888046767407" stroke="rgb(25%, 25%, 25%)" stroke-width="1.0" />
<text x="190.6788819661337" y="18.77888046767407" text-anchor="middle" font-family="Verdana" font-size="7.5" fill="rgb(25%, 25%, 25%)" >10</text>
<line x1="412.31709330142877" y1="28.278880467673503" x2="412.31709330142866" y2="23.278880467673503" stroke="rgb(25%, 25%, 25%)" stroke-width="1.0" />
<text x="412.31709330142854" y="18.778880467673503" text-anchor="middle" font-family="Verdana" font-size="7.5" fill="rgb(25%, 25%, 25%)" >20</text>
<line x1="483.9634843741653" y1="85.84014991192913" x2="482.37053073659956" y2="90.57961177047025" stroke="rgb(25%, 25%, 25%)" stroke-width="1.0" />
<text x="479.981100280251" y="100.68880455828196" text-anchor="middle" font-family="Verdana" font-size="7.5" fill="rgb(25%, 25%, 25%)" >30</text>
<line x1="312.44789270552064" y1="83.15183580534392" x2="316.4286535116298" y2="86.17731814780518" stroke="rgb(25%, 25%, 25%)" stroke-width="1.0" />
<text x="322.39979472079364" y="93.71554166149701" text-anchor="middle" font-family="Verdana" font-size="7.5" fill="rgb(25%, 25%, 25%)" >40</text>
<line x1="391.6016805844851" y1="186.34776550445326" x2="391.6016805844853" y2="181.34776550445326" stroke="rgb(25%, 25%, 25%)" stroke-width="1.0" />
<text x="391.6016805844855" y="176.84776550445326" text-anchor="middle" font-family="Verdana" font-size="7.5" fill="rgb(25%, 25%, 25%)" >50</text>
<line x1="547.2839650118035" y1="182.88219916583427" x2="551.0448042948025" y2="179.58734137111054" stroke="rgb(25%, 25%, 25%)" stroke-width="1.0" />
<text x="556.6860632193009" y="177.64505467902495" text-anchor="middle" font-family="Verdana" font-size="7.5" fill="rgb(25%, 25%, 25%)" >60</text>
<line x1="672.4458149350482" y1="129.99575607098757" x2="667.4458149350482" y2="129.99575607098308" stroke="rgb(25%, 25%, 25%)" stroke-width="1.0" />
<text x="659.9458149350482" y="132.9957560709763" text-anchor="middle" font-family="Verdana" font-size="7.5" fill="rgb(25%, 25%, 25%)" >70</text>
<line x1="567.3428886900065" y1="63.13380382058841" x2="562.6462542092385" y2="64.84892030469723" stroke="rgb(25%, 25%, 25%)" stroke-width="1.0" />
<text x="555.6013024880866" y="70.42159503086043" text-anchor="middle" font-family="Verdana" font-size="7.5" fill="rgb(25%, 25%, 25%)" >80</text>
<line x1="730.8510307413821" y1="17.171984807610215" x2="734.3873255196813" y2="13.637211937824418" stroke="rgb(25%, 25%, 25%)" stroke-width="1.0" />
<text x="739.69176768713" y="11.335052633145608" text-anchor="middle" font-family="Verdana" font-size="7.5" fill="rgb(25%, 25%, 25%)" >90</text>
<line x1="751.7827090676071" y1="122.88587790420542" x2="749.1869873467496" y2="118.61244500454876" stroke="rgb(25%, 25%, 25%)" stroke-width="1.0" />
<text x="745.2934047654632" y="115.20229565506372" text-anchor="middle" font-family="Verdana" font-size="7.5" fill="rgb(25%, 25%, 25%)" >100</text>
<line x1="755.2193728851014" y1="265.0160422472605" x2="759.0907355953398" y2="268.1803037354716" stroke="rgb(25%, 25%, 25%)" stroke-width="1.0" />
<text x="764.8977796606972" y="275.92669596778825" text-anchor="middle" font-family="Verdana" font-size="7.5" fill="rgb(25%, 25%, 25%)" >110</text>
<line x1="609.4154283498285" y1="240.52614265607588" x2="609.4154283498207" y2="245.52614265607588" stroke="rgb(25%, 25%, 25%)" stroke-width="1.0" />
<text x="609.4154283498091" y="256.0261426560759" text-anchor="middle" font-family="Verdana" font-size="7.5" fill="rgb(25%, 25%, 25%)" >120</text>
<line x1="508.5963226822138" y1="344.1262687502458" x2="508.596322682214" y2="349.1262687502458" stroke="rgb(25%, 25%, 25%)" stroke-width="1.0" />
<text x="508.5963226822144" y="359.6262687502458" text-anchor="middle" font-family="Verdana" font-size="7.5" fill="rgb(25%, 25%, 25%)" >130</text>
<line x1="391.60168058448346" y1="247.2045198074319" x2="391.60168058448346" y2="252.2045198074319" stroke="rgb(25%, 25%, 25%)" stroke-width="1.0" />
<text x="391.6016805844834" y="262.7045198074319" text-anchor="middle" font-family="Verdana" font-size="7.5" fill="rgb(25%, 25%, 25%)" >140</text>
<line x1="245.58132951599632" y1="285.51380041759217" x2="243.81728643315648" y2="290.19227794793096" stroke="rgb(25%, 25%, 25%)" stroke-width="1.0" />
<text x="241.17122180889672" y="300.2099942434391" text-anchor="middle" font-family="Verdana" font-size="7.5" fill="rgb(25%, 25%, 25%)" >150</text>
<line x1="110.08858676057663" y1="204.80616041760845" x2="105.57284493493624" y2="202.65951751200862" stroke="rgb(25%, 25%, 25%)" stroke-width="1.0" />
<text x="98.79923219647566" y="202.43955315360887" text-anchor="middle" font-family="Verdana" font-size="7.5" fill="rgb(25%, 25%, 25%)" >160</text>
<line x1="249.08896220125695" y1="148.56821911812273" x2="244.9829452462404" y2="145.7150411066561" stroke="rgb(25%, 25%, 25%)" stroke-width="1.0" />
<text x="238.82391981371563" y="144.43527408945613" text-anchor="middle" font-family="Verdana" font-size="7.5" fill="rgb(25%, 25%, 25%)" >170</text>
<line x1="170.6788819661335" y1="75.77888046767453" x2="170.6788819661335" y2="80.77888046767453" stroke="rgb(25%, 25%, 25%)" stroke-width="1.0" />
<text x="170.67888196613353" y="91.27888046767453" text-anchor="middle" font-family="Verdana" font-size="7.5" fill="rgb(25%, 25%, 25%)" >180</text>
<line x1="17.5" y1="68.27888046767441" x2="12.5" y2="68.27888046767441" stroke="rgb(25%, 25%, 25%)" stroke-width="1.0" />
<text x="5.0" y="71.27888046767453" text-anchor="middle" font-family="Verdana" font-size="7.5" fill="rgb(25%, 25%, 25%)" >188</text>
</svg>
