<?xml version="1.0" encoding="UTF-8"?>
<!DOCTYPE svg PUBLIC "-//W3C//DTD SVG 1.1//EN" 
"http://www.w3.org/Graphics/SVG/1.1/DTD/svg11.dtd">

<svg width="100%" height="100%" version="1.1"
xmlns="http://www.w3.org/2000/svg">
<path d="M 23.897502899169922 55.43309020996094 L 22.832550048828125 55.73609924316406 L 21.841407775878906 56.22962951660156 L 20.957826614379883 56.89686584472656 L 20.211896896362305 57.715118408203125 L 19.62902069091797 58.656494140625 L 19.229045867919922 59.68894958496094 L 19.02559471130371 60.777313232421875 L 19.02559471130371 61.88453674316406 L 19.229045867919922 62.972900390625 L 19.62902069091797 64.00535583496094 L 20.211896896362305 64.94673156738281 L 20.957826614379883 65.76498413085938 L 21.841407775878906 66.43223571777344 L 22.832550048828125 66.92576599121094 L 23.897502899169922 67.228759765625 L 25.0 67.3309326171875 L 45.0 67.3309326171875 L 65.0 67.3309326171875 L 85.0 67.3309326171875 L 103.02851867675781 67.3309326171875 L 117.11795806884766 77.71060180664062 L 138.56092834472656 77.71060180664062 L 152.65036010742188 67.3309326171875 L 170.6788787841797 67.3309326171875 L 190.6788787841797 67.3309326171875 L 210.6788787841797 67.3309326171875 L 230.6788787841797 67.3309326171875 L 245.90586853027344 67.3309326171875 L 248.04248046875 76.58906555175781 L 257.3006286621094 78.72566223144531 L 257.3006286621094 93.95265197753906 L 257.3006286621094 113.95265197753906 L 257.3006286621094 133.95265197753906 L 257.3006286621094 153.95265197753906 L 257.3006286621094 169.9774627685547 L 246.0106964111328 174.75779724121094 L 232.5441131591797 185.14622497558594 L 222.15016174316406 198.6182403564453 L 217.3697509765625 209.90834045410156 L 201.34494018554688 209.90834045410156 L 181.34494018554688 209.90834045410156 L 161.9596710205078 209.90834045410156 L 142.6322479248047 205.90586853027344 L 124.6373062133789 220.5561065673828 L 124.6373062133789 243.7605743408203 L 142.6322479248047 258.4108123779297 L 161.9596710205078 254.40834045410156 L 181.34494018554688 254.40834045410156 L 201.34494018554688 254.40834045410156 L 217.32542419433594 254.40834045410156 L 221.48248291015625 264.51295471191406 L 230.65953063964844 277.1959991455078 L 242.55250549316406 287.3839569091797 L 256.4935607910156 294.5049591064453 L 271.71728515625 298.16871643066406 L 287.3720703125 298.1701202392578 L 302.597412109375 294.50877380371094 L 316.5432434082031 287.3876495361328 L 328.43682861328125 277.20130920410156 L 337.6186828613281 264.5131072998047 L 341.7757873535156 254.40834045410156 L 357.75628662109375 254.40834045410156 L 377.75628662109375 254.40834045410156 L 397.75628662109375 254.40834045410156 L 417.75628662109375 254.40834045410156 L 437.75628662109375 254.40834045410156 L 457.75628662109375 254.40834045410156 L 475.2710266113281 254.40834045410156 L 496.3254089355469 275.4627227783203 L 496.3254089355469 292.97743225097656 L 496.3254089355469 311.7933807373047 L 489.18450927734375 329.18116760253906 L 497.81793212890625 349.91786193847656 L 518.5753784179688 358.5011749267578 L 539.3328857421875 349.91786193847656 L 547.96630859375 329.18116760253906 L 540.8253784179688 311.7933807373047 L 540.8253784179688 292.97743225097656 L 540.8253784179688 276.2112274169922 L 553.9737548828125 267.5567169189453 L 562.6282958984375 254.40834045410156 L 579.39453125 254.40834045410156 L 599.39453125 254.40834045410156 L 616.0072021484375 254.40834045410156 L 628.6483154296875 275.35841369628906 L 647.13916015625 286.51564025878906 L 641.4915161132812 295.03810119628906 L 641.4915161132812 313.32911682128906 L 648.040283203125 323.21141052246094 L 638.2862548828125 334.1363067626953 L 635.0591430664062 354.93519592285156 L 643.660400390625 374.1452178955078 L 661.3245239257812 385.59010314941406 L 682.3722534179688 385.59010314941406 L 700.036376953125 374.1452178955078 L 708.6376342773438 354.93519592285156 L 705.4105224609375 334.1363067626953 L 695.21435546875 322.7162322998047 L 703.9149169921875 304.18360900878906 L 695.9721069335938 287.2650604248047 L 709.420654296875 280.2309112548828 L 724.0419311523438 263.75706481933594 L 731.8602905273438 243.16807556152344 L 731.8610229492188 221.15232849121094 L 724.0399169921875 200.5562286376953 L 709.4205932617188 184.08570861816406 L 694.098388671875 176.07154846191406 L 694.098388671875 159.70445251464844 L 694.098388671875 139.70445251464844 L 694.098388671875 122.77931213378906 L 710.4276733398438 111.03175354003906 L 721.223876953125 88.79972839355469 L 720.162841796875 64.11990356445312 L 707.5037231445312 42.90165710449219 L 686.2869262695312 30.244781494140625 L 661.6035766601562 29.185104370117188 L 639.3761596679688 39.98045349121094 L 627.628662109375 56.309600830078125 L 612.692138671875 56.309600830078125 L 598.6787109375 45.87422180175781 L 577.2581176757812 45.69422912597656 L 559.8646240234375 58.197845458984375 L 553.2108764648438 78.55961608886719 L 559.8646240234375 98.92137145996094 L 577.2581176757812 111.42500305175781 L 598.6787109375 111.24501037597656 L 612.692138671875 100.80961608886719 L 625.0517578125 100.80961608886719 L 625.4061279296875 106.73268127441406 L 631.3640747070312 119.04985046386719 L 643.676025390625 125.00190734863281 L 649.598388671875 125.35621643066406 L 649.598388671875 139.70445251464844 L 649.598388671875 159.70445251464844 L 649.598388671875 175.71583557128906 L 642.9307861328125 178.51454162597656 L 633.1342163085938 185.09352111816406 L 624.786376953125 193.4407501220703 L 618.2046508789062 203.2406463623047 L 615.4058837890625 209.90834045410156 L 599.39453125 209.90834045410156 L 579.39453125 209.90834045410156 L 562.7571411132812 209.90834045410156 L 556.2010498046875 199.19480895996094 L 543.0286254882812 188.51988220214844 L 527.056640625 182.8597869873047 L 510.0975341796875 182.8591766357422 L 494.1192321777344 188.52149963378906 L 480.94970703125 199.19493103027344 L 474.3936767578125 209.90834045410156 L 457.75628662109375 209.90834045410156 L 437.75628662109375 209.90834045410156 L 417.75628662109375 209.90834045410156 L 397.75628662109375 209.90834045410156 L 377.75628662109375 209.90834045410156 L 357.75628662109375 209.90834045410156 L 340.2415771484375 209.90834045410156 L 301.8006286621094 171.46739196777344 L 301.8006286621094 153.95265197753906 L 301.8006286621094 133.95265197753906 L 301.8006286621094 113.95265197753906 L 301.8006286621094 93.95265197753906 L 301.8006286621094 78.72566223144531 L 311.0587463378906 76.58906555175781 L 313.19537353515625 67.3309326171875 L 328.42236328125 67.3309326171875 L 348.42236328125 67.3309326171875 L 368.42236328125 67.3309326171875 L 388.42236328125 67.3309326171875 L 408.42236328125 67.3309326171875 L 428.42236328125 67.3309326171875 L 448.42236328125 67.3309326171875 L 466.4337463378906 67.3309326171875 L 480.4471435546875 77.76631164550781 L 501.86773681640625 77.94630432128906 L 519.26123046875 65.44268798828125 L 525.9150390625 45.0809326171875 L 519.26123046875 24.719161987304688 L 501.86773681640625 12.215545654296875 L 480.4471435546875 12.395538330078125 L 466.4337463378906 22.8309326171875 L 448.42236328125 22.8309326171875 L 428.42236328125 22.8309326171875 L 408.42236328125 22.8309326171875 L 388.42236328125 22.8309326171875 L 368.42236328125 22.8309326171875 L 348.42236328125 22.8309326171875 L 328.42236328125 22.8309326171875 L 310.04766845703125 22.8309326171875 L 279.5506286621094 5.0 L 249.05355834960938 22.8309326171875 L 230.6788787841797 22.8309326171875 L 210.6788787841797 22.8309326171875 L 190.6788787841797 22.8309326171875 L 170.6788787841797 22.8309326171875 L 152.65036010742188 22.8309326171875 L 138.56092834472656 12.451248168945312 L 117.11795806884766 12.451248168945312 L 103.02851867675781 22.8309326171875 L 85.0 22.8309326171875 L 65.0 22.8309326171875 L 45.0 22.8309326171875 L 25.0 22.8309326171875 L 23.897502899169922 22.933090209960938 L 22.832550048828125 23.236099243164062 L 21.841407775878906 23.729629516601562 L 20.957826614379883 24.396865844726562 L 20.211896896362305 25.215118408203125 L 19.62902069091797 26.156494140625 L 19.229045867919922 27.188949584960938 L 19.02559471130371 28.277313232421875 L 19.02559471130371 29.384536743164062 L 19.229045867919922 30.472900390625 L 19.62902069091797 31.505355834960938 L 20.211896896362305 32.44673156738281 L 20.957826614379883 33.264984130859375 L 21.841407775878906 33.93223571777344 L 22.832550048828125 34.42576599121094 L 23.897502899169922 34.728759765625 L 25.0 34.8309326171875 L 45.0 34.8309326171875 L 65.0 34.8309326171875 L 85.0 34.8309326171875 L 106.97148132324219 34.8309326171875 L 121.06092071533203 24.451248168945312 L 134.6179656982422 24.451248168945312 L 148.7073974609375 34.8309326171875 L 170.6788787841797 34.8309326171875 L 190.6788787841797 34.8309326171875 L 210.6788787841797 34.8309326171875 L 230.6788787841797 34.8309326171875 L 252.30419921875 34.8309326171875 L 279.5506286621094 18.90057373046875 L 306.7970275878906 34.8309326171875 L 328.42236328125 34.8309326171875 L 348.42236328125 34.8309326171875 L 368.42236328125 34.8309326171875 L 388.42236328125 34.8309326171875 L 408.42236328125 34.8309326171875 L 428.42236328125 34.8309326171875 L 448.42236328125 34.8309326171875 L 470.41094970703125 34.8309326171875 L 484.46917724609375 24.362167358398438 L 498.04736328125 24.248062133789062 L 509.0728454589844 32.173919677734375 L 513.2905883789062 45.0809326171875 L 509.0728454589844 57.98793029785156 L 498.04736328125 65.91378784179688 L 484.46917724609375 65.7996826171875 L 470.41094970703125 55.3309326171875 L 448.42236328125 55.3309326171875 L 428.42236328125 55.3309326171875 L 408.42236328125 55.3309326171875 L 388.42236328125 55.3309326171875 L 368.42236328125 55.3309326171875 L 348.42236328125 55.3309326171875 L 328.42236328125 55.3309326171875 L 303.6493225097656 55.3309326171875 L 301.0525817871094 66.5828857421875 L 289.8006286621094 69.17964172363281 L 289.8006286621094 93.95265197753906 L 289.8006286621094 113.95265197753906 L 289.8006286621094 133.95265197753906 L 289.8006286621094 153.95265197753906 L 289.8006286621094 176.4379425048828 L 335.2710266113281 221.90834045410156 L 357.75628662109375 221.90834045410156 L 377.75628662109375 221.90834045410156 L 397.75628662109375 221.90834045410156 L 417.75628662109375 221.90834045410156 L 437.75628662109375 221.90834045410156 L 457.75628662109375 221.90834045410156 L 481.118896484375 221.90834045410156 L 490.10833740234375 207.2184600830078 L 500.0721130371094 199.1431427001953 L 512.1607055664062 194.85923767089844 L 524.9930419921875 194.8596954345703 L 537.0759887695312 199.14161682128906 L 547.0425415039062 207.2185516357422 L 556.0319213867188 221.90834045410156 L 579.39453125 221.90834045410156 L 599.39453125 221.90834045410156 L 623.3831176757812 221.90834045410156 L 628.8175048828125 208.9617462158203 L 634.0971069335938 201.1006622314453 L 640.7935791015625 194.40464782714844 L 648.6516723632812 189.1274871826172 L 661.598388671875 183.69309997558594 L 661.598388671875 159.70445251464844 L 661.598388671875 139.70445251464844 L 661.598388671875 114.05268859863281 L 646.761962890625 113.16505432128906 L 640.3477783203125 110.06419372558594 L 637.2428588867188 103.64530944824219 L 636.3552856445312 88.80961608886719 L 608.7149047851562 88.80961608886719 L 594.6566772460938 99.27836608886719 L 581.0784912109375 99.39247131347656 L 570.0530395507812 91.46659851074219 L 565.8353271484375 78.55961608886719 L 570.0530395507812 65.65260314941406 L 581.0784912109375 57.72674560546875 L 594.6566772460938 57.84083557128906 L 608.7149047851562 68.30960083007812 L 633.7783813476562 68.30960083007812 L 647.3463745117188 49.449920654296875 L 664.118408203125 41.30412292480469 L 682.7430419921875 42.10369873046875 L 698.7520141601562 51.65382385253906 L 708.3041381835938 67.66444396972656 L 709.1046752929688 86.28553771972656 L 700.9579467773438 103.06172180175781 L 682.098388671875 116.62959289550781 L 682.098388671875 139.70445251464844 L 682.098388671875 159.70445251464844 L 682.098388671875 183.3373565673828 L 701.90771484375 193.69850158691406 L 713.6033325195312 206.87510681152344 L 719.8609008789062 223.3538360595703 L 719.8603515625 240.96617126464844 L 713.6052856445312 257.4384002685547 L 701.9075927734375 270.6182403564453 L 680.224609375 281.95936584472656 L 690.6582641601562 304.18360900878906 L 680.982421875 324.79380798339844 L 694.0963745117188 339.48194885253906 L 696.235595703125 353.26930236816406 L 690.5338745117188 366.0033721923828 L 678.8245239257812 373.59010314941406 L 664.8722534179688 373.59010314941406 L 653.1629028320312 366.0033721923828 L 647.461181640625 353.26930236816406 L 649.6004028320312 339.48194885253906 L 663.156494140625 324.2986297607422 L 653.4915161132812 309.7139129638672 L 653.4915161132812 298.65330505371094 L 664.0576171875 282.7087860107422 L 637.3893432617188 266.61741638183594 L 622.7817993164062 242.40834045410156 L 599.39453125 242.40834045410156 L 579.39453125 242.40834045410156 L 556.1607055664062 242.40834045410156 L 545.3101196289062 258.89308166503906 L 528.8253784179688 269.74363708496094 L 528.8253784179688 292.97743225097656 L 528.8253784179688 314.16151428222656 L 534.9808349609375 329.1498260498047 L 530.161865234375 340.7246856689453 L 518.5753784179688 345.51576232910156 L 506.98895263671875 340.7246856689453 L 502.1699523925781 329.1498260498047 L 508.3254089355469 314.16151428222656 L 508.3254089355469 292.97743225097656 L 508.3254089355469 270.49217224121094 L 480.2415771484375 242.40834045410156 L 457.75628662109375 242.40834045410156 L 437.75628662109375 242.40834045410156 L 417.75628662109375 242.40834045410156 L 397.75628662109375 242.40834045410156 L 377.75628662109375 242.40834045410156 L 357.75628662109375 242.40834045410156 L 333.7367858886719 242.40834045410156 L 327.06268310546875 258.63121032714844 L 319.5498046875 269.0131072998047 L 309.8183898925781 277.34764099121094 L 298.4078063964844 283.17417907714844 L 285.95001220703125 286.1699981689453 L 273.1414489746094 286.16883850097656 L 260.68487548828125 283.17103576660156 L 249.27853393554688 277.34474182128906 L 239.54718017578125 269.00852966308594 L 232.0386199951172 258.63136291503906 L 225.36444091796875 242.40834045410156 L 201.34494018554688 242.40834045410156 L 181.34494018554688 242.40834045410156 L 160.73019409179688 242.40834045410156 L 145.7847442626953 245.5033416748047 L 136.63729858398438 238.05613708496094 L 136.63729858398438 226.2605438232422 L 145.7847442626953 218.81333923339844 L 160.73019409179688 221.90834045410156 L 181.34494018554688 221.90834045410156 L 201.34494018554688 221.90834045410156 L 225.32012939453125 221.90834045410156 L 232.5968017578125 204.7227020263672 L 241.0994415283203 193.7021026611328 L 252.11480712890625 185.20460510253906 L 269.3006286621094 177.92784118652344 L 269.3006286621094 153.95265197753906 L 269.3006286621094 133.95265197753906 L 269.3006286621094 113.95265197753906 L 269.3006286621094 93.95265197753906 L 269.3006286621094 69.17964172363281 L 258.04864501953125 66.5828857421875 L 255.451904296875 55.3309326171875 L 230.6788787841797 55.3309326171875 L 210.6788787841797 55.3309326171875 L 190.6788787841797 55.3309326171875 L 170.6788787841797 55.3309326171875 L 148.7073974609375 55.3309326171875 L 134.6179656982422 65.71060180664062 L 121.06092071533203 65.71060180664062 L 106.97148132324219 55.3309326171875 L 85.0 55.3309326171875 L 65.0 55.3309326171875 L 45.0 55.3309326171875 L 25.0 55.3309326171875 z" fill="rgb(80%, 80%, 80%)" style="stroke:none;"/>
<path d="M 23.897502899169922 55.43309020996094 L 22.832550048828125 55.73609924316406 L 21.841407775878906 56.22962951660156 L 20.957826614379883 56.89686584472656 L 20.211896896362305 57.715118408203125 L 19.62902069091797 58.656494140625 L 19.229045867919922 59.68894958496094 L 19.02559471130371 60.777313232421875 L 19.02559471130371 61.88453674316406 L 19.229045867919922 62.972900390625 L 19.62902069091797 64.00535583496094 L 20.211896896362305 64.94673156738281 L 20.957826614379883 65.76498413085938 L 21.841407775878906 66.43223571777344 L 22.832550048828125 66.92576599121094 L 23.897502899169922 67.228759765625 L 25.0 67.3309326171875 L 45.0 67.3309326171875 L 65.0 67.3309326171875 L 85.0 67.3309326171875 L 103.02851867675781 67.3309326171875 L 117.11795806884766 77.71060180664062 L 138.56092834472656 77.71060180664062 L 152.65036010742188 67.3309326171875 L 170.6788787841797 67.3309326171875 L 190.6788787841797 67.3309326171875 L 210.6788787841797 67.3309326171875 L 230.6788787841797 67.3309326171875 L 245.90586853027344 67.3309326171875 L 248.04248046875 76.58906555175781 L 257.3006286621094 78.72566223144531 L 257.3006286621094 93.95265197753906 L 257.3006286621094 113.95265197753906 L 257.3006286621094 133.95265197753906 L 257.3006286621094 153.95265197753906 L 257.3006286621094 169.9774627685547 L 246.0106964111328 174.75779724121094 L 232.5441131591797 185.14622497558594 L 222.15016174316406 198.6182403564453 L 217.3697509765625 209.90834045410156 L 201.34494018554688 209.90834045410156 L 181.34494018554688 209.90834045410156 L 161.9596710205078 209.90834045410156 L 142.6322479248047 205.90586853027344 L 124.6373062133789 220.5561065673828 L 124.6373062133789 243.7605743408203 L 142.6322479248047 258.4108123779297 L 161.9596710205078 254.40834045410156 L 181.34494018554688 254.40834045410156 L 201.34494018554688 254.40834045410156 L 217.32542419433594 254.40834045410156 L 221.48248291015625 264.51295471191406 L 230.65953063964844 277.1959991455078 L 242.55250549316406 287.3839569091797 L 256.4935607910156 294.5049591064453 L 271.71728515625 298.16871643066406 L 287.3720703125 298.1701202392578 L 302.597412109375 294.50877380371094 L 316.5432434082031 287.3876495361328 L 328.43682861328125 277.20130920410156 L 337.6186828613281 264.5131072998047 L 341.7757873535156 254.40834045410156 L 357.75628662109375 254.40834045410156 L 377.75628662109375 254.40834045410156 L 397.75628662109375 254.40834045410156 L 417.75628662109375 254.40834045410156 L 437.75628662109375 254.40834045410156 L 457.75628662109375 254.40834045410156 L 475.2710266113281 254.40834045410156 L 496.3254089355469 275.4627227783203 L 496.3254089355469 292.97743225097656 L 496.3254089355469 311.7933807373047 L 489.18450927734375 329.18116760253906 L 497.81793212890625 349.91786193847656 L 518.5753784179688 358.5011749267578 L 539.3328857421875 349.91786193847656 L 547.96630859375 329.18116760253906 L 540.8253784179688 311.7933807373047 L 540.8253784179688 292.97743225097656 L 540.8253784179688 276.2112274169922 L 553.9737548828125 267.5567169189453 L 562.6282958984375 254.40834045410156 L 579.39453125 254.40834045410156 L 599.39453125 254.40834045410156 L 616.0072021484375 254.40834045410156 L 628.6483154296875 275.35841369628906 L 647.13916015625 286.51564025878906 L 641.4915161132812 295.03810119628906 L 641.4915161132812 313.32911682128906 L 648.040283203125 323.21141052246094 L 638.2862548828125 334.1363067626953 L 635.0591430664062 354.93519592285156 L 643.660400390625 374.1452178955078 L 661.3245239257812 385.59010314941406 L 682.3722534179688 385.59010314941406 L 700.036376953125 374.1452178955078 L 708.6376342773438 354.93519592285156 L 705.4105224609375 334.1363067626953 L 695.21435546875 322.7162322998047 L 703.9149169921875 304.18360900878906 L 695.9721069335938 287.2650604248047 L 709.420654296875 280.2309112548828 L 724.0419311523438 263.75706481933594 L 731.8602905273438 243.16807556152344 L 731.8610229492188 221.15232849121094 L 724.0399169921875 200.5562286376953 L 709.4205932617188 184.08570861816406 L 694.098388671875 176.07154846191406 L 694.098388671875 159.70445251464844 L 694.098388671875 139.70445251464844 L 694.098388671875 122.77931213378906 L 710.4276733398438 111.03175354003906 L 721.223876953125 88.79972839355469 L 720.162841796875 64.11990356445312 L 707.5037231445312 42.90165710449219 L 686.2869262695312 30.244781494140625 L 661.6035766601562 29.185104370117188 L 639.3761596679688 39.98045349121094 L 627.628662109375 56.309600830078125 L 612.692138671875 56.309600830078125 L 598.6787109375 45.87422180175781 L 577.2581176757812 45.69422912597656 L 559.8646240234375 58.197845458984375 L 553.2108764648438 78.55961608886719 L 559.8646240234375 98.92137145996094 L 577.2581176757812 111.42500305175781 L 598.6787109375 111.24501037597656 L 612.692138671875 100.80961608886719 L 625.0517578125 100.80961608886719 L 625.4061279296875 106.73268127441406 L 631.3640747070312 119.04985046386719 L 643.676025390625 125.00190734863281 L 649.598388671875 125.35621643066406 L 649.598388671875 139.70445251464844 L 649.598388671875 159.70445251464844 L 649.598388671875 175.71583557128906 L 642.9307861328125 178.51454162597656 L 633.1342163085938 185.09352111816406 L 624.786376953125 193.4407501220703 L 618.2046508789062 203.2406463623047 L 615.4058837890625 209.90834045410156 L 599.39453125 209.90834045410156 L 579.39453125 209.90834045410156 L 562.7571411132812 209.90834045410156 L 556.2010498046875 199.19480895996094 L 543.0286254882812 188.51988220214844 L 527.056640625 182.8597869873047 L 510.0975341796875 182.8591766357422 L 494.1192321777344 188.52149963378906 L 480.94970703125 199.19493103027344 L 474.3936767578125 209.90834045410156 L 457.75628662109375 209.90834045410156 L 437.75628662109375 209.90834045410156 L 417.75628662109375 209.90834045410156 L 397.75628662109375 209.90834045410156 L 377.75628662109375 209.90834045410156 L 357.75628662109375 209.90834045410156 L 340.2415771484375 209.90834045410156 L 301.8006286621094 171.46739196777344 L 301.8006286621094 153.95265197753906 L 301.8006286621094 133.95265197753906 L 301.8006286621094 113.95265197753906 L 301.8006286621094 93.95265197753906 L 301.8006286621094 78.72566223144531 L 311.0587463378906 76.58906555175781 L 313.19537353515625 67.3309326171875 L 328.42236328125 67.3309326171875 L 348.42236328125 67.3309326171875 L 368.42236328125 67.3309326171875 L 388.42236328125 67.3309326171875 L 408.42236328125 67.3309326171875 L 428.42236328125 67.3309326171875 L 448.42236328125 67.3309326171875 L 466.4337463378906 67.3309326171875 L 480.4471435546875 77.76631164550781 L 501.86773681640625 77.94630432128906 L 519.26123046875 65.44268798828125 L 525.9150390625 45.0809326171875 L 519.26123046875 24.719161987304688 L 501.86773681640625 12.215545654296875 L 480.4471435546875 12.395538330078125 L 466.4337463378906 22.8309326171875 L 448.42236328125 22.8309326171875 L 428.42236328125 22.8309326171875 L 408.42236328125 22.8309326171875 L 388.42236328125 22.8309326171875 L 368.42236328125 22.8309326171875 L 348.42236328125 22.8309326171875 L 328.42236328125 22.8309326171875 L 310.04766845703125 22.8309326171875 L 279.5506286621094 5.0 L 249.05355834960938 22.8309326171875 L 230.6788787841797 22.8309326171875 L 210.6788787841797 22.8309326171875 L 190.6788787841797 22.8309326171875 L 170.6788787841797 22.8309326171875 L 152.65036010742188 22.8309326171875 L 138.56092834472656 12.451248168945312 L 117.11795806884766 12.451248168945312 L 103.02851867675781 22.8309326171875 L 85.0 22.8309326171875 L 65.0 22.8309326171875 L 45.0 22.8309326171875 L 25.0 22.8309326171875 L 23.897502899169922 22.933090209960938 L 22.832550048828125 23.236099243164062 L 21.841407775878906 23.729629516601562 L 20.957826614379883 24.396865844726562 L 20.211896896362305 25.215118408203125 L 19.62902069091797 26.156494140625 L 19.229045867919922 27.188949584960938 L 19.02559471130371 28.277313232421875 L 19.02559471130371 29.384536743164062 L 19.229045867919922 30.472900390625 L 19.62902069091797 31.505355834960938 L 20.211896896362305 32.44673156738281 L 20.957826614379883 33.264984130859375 L 21.841407775878906 33.93223571777344 L 22.832550048828125 34.42576599121094 L 23.897502899169922 34.728759765625 L 25.0 34.8309326171875 L 45.0 34.8309326171875 L 65.0 34.8309326171875 L 85.0 34.8309326171875 L 106.97148132324219 34.8309326171875 L 121.06092071533203 24.451248168945312 L 134.6179656982422 24.451248168945312 L 148.7073974609375 34.8309326171875 L 170.6788787841797 34.8309326171875 L 190.6788787841797 34.8309326171875 L 210.6788787841797 34.8309326171875 L 230.6788787841797 34.8309326171875 L 252.30419921875 34.8309326171875 L 279.5506286621094 18.90057373046875 L 306.7970275878906 34.8309326171875 L 328.42236328125 34.8309326171875 L 348.42236328125 34.8309326171875 L 368.42236328125 34.8309326171875 L 388.42236328125 34.8309326171875 L 408.42236328125 34.8309326171875 L 428.42236328125 34.8309326171875 L 448.42236328125 34.8309326171875 L 470.41094970703125 34.8309326171875 L 484.46917724609375 24.362167358398438 L 498.04736328125 24.248062133789062 L 509.0728454589844 32.173919677734375 L 513.2905883789062 45.0809326171875 L 509.0728454589844 57.98793029785156 L 498.04736328125 65.91378784179688 L 484.46917724609375 65.7996826171875 L 470.41094970703125 55.3309326171875 L 448.42236328125 55.3309326171875 L 428.42236328125 55.3309326171875 L 408.42236328125 55.3309326171875 L 388.42236328125 55.3309326171875 L 368.42236328125 55.3309326171875 L 348.42236328125 55.3309326171875 L 328.42236328125 55.3309326171875 L 303.6493225097656 55.3309326171875 L 301.0525817871094 66.5828857421875 L 289.8006286621094 69.17964172363281 L 289.8006286621094 93.95265197753906 L 289.8006286621094 113.95265197753906 L 289.8006286621094 133.95265197753906 L 289.8006286621094 153.95265197753906 L 289.8006286621094 176.4379425048828 L 335.2710266113281 221.90834045410156 L 357.75628662109375 221.90834045410156 L 377.75628662109375 221.90834045410156 L 397.75628662109375 221.90834045410156 L 417.75628662109375 221.90834045410156 L 437.75628662109375 221.90834045410156 L 457.75628662109375 221.90834045410156 L 481.118896484375 221.90834045410156 L 490.10833740234375 207.2184600830078 L 500.0721130371094 199.1431427001953 L 512.1607055664062 194.85923767089844 L 524.9930419921875 194.8596954345703 L 537.0759887695312 199.14161682128906 L 547.0425415039062 207.2185516357422 L 556.0319213867188 221.90834045410156 L 579.39453125 221.90834045410156 L 599.39453125 221.90834045410156 L 623.3831176757812 221.90834045410156 L 628.8175048828125 208.9617462158203 L 634.0971069335938 201.1006622314453 L 640.7935791015625 194.40464782714844 L 648.6516723632812 189.1274871826172 L 661.598388671875 183.69309997558594 L 661.598388671875 159.70445251464844 L 661.598388671875 139.70445251464844 L 661.598388671875 114.05268859863281 L 646.761962890625 113.16505432128906 L 640.3477783203125 110.06419372558594 L 637.2428588867188 103.64530944824219 L 636.3552856445312 88.80961608886719 L 608.7149047851562 88.80961608886719 L 594.6566772460938 99.27836608886719 L 581.0784912109375 99.39247131347656 L 570.0530395507812 91.46659851074219 L 565.8353271484375 78.55961608886719 L 570.0530395507812 65.65260314941406 L 581.0784912109375 57.72674560546875 L 594.6566772460938 57.84083557128906 L 608.7149047851562 68.30960083007812 L 633.7783813476562 68.30960083007812 L 647.3463745117188 49.449920654296875 L 664.118408203125 41.30412292480469 L 682.7430419921875 42.10369873046875 L 698.7520141601562 51.65382385253906 L 708.3041381835938 67.66444396972656 L 709.1046752929688 86.28553771972656 L 700.9579467773438 103.06172180175781 L 682.098388671875 116.62959289550781 L 682.098388671875 139.70445251464844 L 682.098388671875 159.70445251464844 L 682.098388671875 183.3373565673828 L 701.90771484375 193.69850158691406 L 713.6033325195312 206.87510681152344 L 719.8609008789062 223.3538360595703 L 719.8603515625 240.96617126464844 L 713.6052856445312 257.4384002685547 L 701.9075927734375 270.6182403564453 L 680.224609375 281.95936584472656 L 690.6582641601562 304.18360900878906 L 680.982421875 324.79380798339844 L 694.0963745117188 339.48194885253906 L 696.235595703125 353.26930236816406 L 690.5338745117188 366.0033721923828 L 678.8245239257812 373.59010314941406 L 664.8722534179688 373.59010314941406 L 653.1629028320312 366.0033721923828 L 647.461181640625 353.26930236816406 L 649.6004028320312 339.48194885253906 L 663.156494140625 324.2986297607422 L 653.4915161132812 309.7139129638672 L 653.4915161132812 298.65330505371094 L 664.0576171875 282.7087860107422 L 637.3893432617188 266.61741638183594 L 622.7817993164062 242.40834045410156 L 599.39453125 242.40834045410156 L 579.39453125 242.40834045410156 L 556.1607055664062 242.40834045410156 L 545.3101196289062 258.89308166503906 L 528.8253784179688 269.74363708496094 L 528.8253784179688 292.97743225097656 L 528.8253784179688 314.16151428222656 L 534.9808349609375 329.1498260498047 L 530.161865234375 340.7246856689453 L 518.5753784179688 345.51576232910156 L 506.98895263671875 340.7246856689453 L 502.1699523925781 329.1498260498047 L 508.3254089355469 314.16151428222656 L 508.3254089355469 292.97743225097656 L 508.3254089355469 270.49217224121094 L 480.2415771484375 242.40834045410156 L 457.75628662109375 242.40834045410156 L 437.75628662109375 242.40834045410156 L 417.75628662109375 242.40834045410156 L 397.75628662109375 242.40834045410156 L 377.75628662109375 242.40834045410156 L 357.75628662109375 242.40834045410156 L 333.7367858886719 242.40834045410156 L 327.06268310546875 258.63121032714844 L 319.5498046875 269.0131072998047 L 309.8183898925781 277.34764099121094 L 298.4078063964844 283.17417907714844 L 285.95001220703125 286.1699981689453 L 273.1414489746094 286.16883850097656 L 260.68487548828125 283.17103576660156 L 249.27853393554688 277.34474182128906 L 239.54718017578125 269.00852966308594 L 232.0386199951172 258.63136291503906 L 225.36444091796875 242.40834045410156 L 201.34494018554688 242.40834045410156 L 181.34494018554688 242.40834045410156 L 160.73019409179688 242.40834045410156 L 145.7847442626953 245.5033416748047 L 136.63729858398438 238.05613708496094 L 136.63729858398438 226.2605438232422 L 145.7847442626953 218.81333923339844 L 160.73019409179688 221.90834045410156 L 181.34494018554688 221.90834045410156 L 201.34494018554688 221.90834045410156 L 225.32012939453125 221.90834045410156 L 232.5968017578125 204.7227020263672 L 241.0994415283203 193.7021026611328 L 252.11480712890625 185.20460510253906 L 269.3006286621094 177.92784118652344 L 269.3006286621094 153.95265197753906 L 269.3006286621094 133.95265197753906 L 269.3006286621094 113.95265197753906 L 269.3006286621094 93.95265197753906 L 269.3006286621094 69.17964172363281 L 258.04864501953125 66.5828857421875 L 255.451904296875 55.3309326171875 L 230.6788787841797 55.3309326171875 L 210.6788787841797 55.3309326171875 L 190.6788787841797 55.3309326171875 L 170.6788787841797 55.3309326171875 L 148.7073974609375 55.3309326171875 L 134.6179656982422 65.71060180664062 L 121.06092071533203 65.71060180664062 L 106.97148132324219 55.3309326171875 L 85.0 55.3309326171875 L 65.0 55.3309326171875 L 45.0 55.3309326171875 L 25.0 55.3309326171875 z" style="fill:none; stroke:rgb(0%, 0%, 0%); stroke-width:1.0;"/>
<line x1="25.000000000000053" y1="33.830925959782235" x2="25.000000000000288" y2="56.330925959782235" stroke="rgb(0%, 0%, 100%)" stroke-width="1.0" />
<line x1="45.00000000000029" y1="33.83092595978212" x2="45.00000000000005" y2="56.330925959782064" stroke="rgb(0%, 0%, 100%)" stroke-width="1.0" />
<line x1="65.0000000000002" y1="33.830925959782235" x2="65.00000000000037" y2="56.330925959782235" stroke="rgb(0%, 0%, 100%)" stroke-width="1.0" />
<line x1="85.00000000000038" y1="33.830925959782235" x2="85.0000000000003" y2="56.330925959782235" stroke="rgb(0%, 0%, 100%)" stroke-width="1.0" />
<line x1="105.00000000000016" y1="33.830925959782235" x2="105.00000000000007" y2="56.330925959782235" stroke="rgb(0%, 0%, 100%)" stroke-width="1.0" />
<line x1="150.67888196613322" y1="33.830925959782064" x2="150.67888196613316" y2="56.330925959782235" stroke="rgb(0%, 0%, 100%)" stroke-width="1.0" />
<line x1="170.67888196613328" y1="33.83092595978201" x2="170.67888196613345" y2="56.330925959782235" stroke="rgb(0%, 0%, 100%)" stroke-width="1.0" />
<line x1="190.67888196613353" y1="33.83092595978229" x2="190.6788819661333" y2="56.33092595978212" stroke="rgb(0%, 0%, 100%)" stroke-width="1.0" />
<line x1="210.6788819661332" y1="33.83092595978218" x2="210.67888196613342" y2="56.33092595978218" stroke="rgb(0%, 0%, 100%)" stroke-width="1.0" />
<line x1="230.67888196613302" y1="33.83092595978218" x2="230.67888196613302" y2="56.33092595978212" stroke="rgb(0%, 0%, 100%)" stroke-width="1.0" />
<line x1="250.67888196613342" y1="33.83092595978212" x2="250.6788819661332" y2="56.33092595978201" stroke="rgb(0%, 0%, 100%)" stroke-width="1.0" />
<line x1="308.4223501668632" y1="33.830925959781894" x2="308.4223501668631" y2="56.33092595978235" stroke="rgb(0%, 0%, 100%)" stroke-width="1.0" />
<line x1="328.422350166864" y1="33.83092595978184" x2="328.4223501668637" y2="56.33092595978178" stroke="rgb(0%, 0%, 100%)" stroke-width="1.0" />
<line x1="348.4223501668635" y1="33.83092595978178" x2="348.42235016686317" y2="56.33092595978246" stroke="rgb(0%, 0%, 100%)" stroke-width="1.0" />
<line x1="368.4223501668639" y1="33.830925959781666" x2="368.4223501668637" y2="56.330925959781894" stroke="rgb(0%, 0%, 100%)" stroke-width="1.0" />
<line x1="388.4223501668635" y1="33.83092595978178" x2="388.4223501668636" y2="56.330925959781325" stroke="rgb(0%, 0%, 100%)" stroke-width="1.0" />
<line x1="408.42235016686345" y1="33.83092595978144" x2="408.42235016686334" y2="56.33092595978087" stroke="rgb(0%, 0%, 100%)" stroke-width="1.0" />
<line x1="428.4223501668637" y1="33.830925959781325" x2="428.42235016686357" y2="56.33092595978093" stroke="rgb(0%, 0%, 100%)" stroke-width="1.0" />
<line x1="448.4223501668636" y1="33.8309259597811" x2="448.4223501668635" y2="56.33092595978155" stroke="rgb(0%, 0%, 100%)" stroke-width="1.0" />
<line x1="468.422350166864" y1="33.83092595978121" x2="468.4223501668637" y2="56.330925959781496" stroke="rgb(0%, 0%, 100%)" stroke-width="1.0" />
<line x1="290.8006160664982" y1="73.95266006014731" x2="268.30061606649843" y2="73.95266006014725" stroke="rgb(0%, 0%, 100%)" stroke-width="1.0" />
<line x1="290.8006160664982" y1="93.95266006014748" x2="268.3006160664983" y2="93.95266006014725" stroke="rgb(0%, 0%, 100%)" stroke-width="1.0" />
<line x1="290.8006160664982" y1="113.95266006014737" x2="268.3006160664982" y2="113.95266006014737" stroke="rgb(0%, 0%, 100%)" stroke-width="1.0" />
<line x1="290.8006160664983" y1="133.95266006014742" x2="268.30061606649843" y2="133.95266006014725" stroke="rgb(0%, 0%, 100%)" stroke-width="1.0" />
<line x1="290.8006160664983" y1="153.9526600601473" x2="268.3006160664983" y2="153.95266006014737" stroke="rgb(0%, 0%, 100%)" stroke-width="1.0" />
<line x1="290.8006160664982" y1="173.9526600601473" x2="268.30061606649843" y2="173.9526600601472" stroke="rgb(0%, 0%, 100%)" stroke-width="1.0" />
<line x1="337.756295288893" y1="220.90833928254114" x2="337.756295288893" y2="243.4083392825412" stroke="rgb(0%, 0%, 100%)" stroke-width="1.0" />
<line x1="357.7562952888923" y1="220.90833928254125" x2="357.7562952888922" y2="243.4083392825416" stroke="rgb(0%, 0%, 100%)" stroke-width="1.0" />
<line x1="377.75629528889294" y1="220.90833928254125" x2="377.75629528889283" y2="243.40833928254062" stroke="rgb(0%, 0%, 100%)" stroke-width="1.0" />
<line x1="397.75629528889266" y1="220.9083392825417" x2="397.7562952888928" y2="243.40833928254187" stroke="rgb(0%, 0%, 100%)" stroke-width="1.0" />
<line x1="417.75629528889226" y1="220.90833928254125" x2="417.75629528889215" y2="243.408339282542" stroke="rgb(0%, 0%, 100%)" stroke-width="1.0" />
<line x1="437.75629528889266" y1="220.90833928254142" x2="437.7562952888923" y2="243.40833928254233" stroke="rgb(0%, 0%, 100%)" stroke-width="1.0" />
<line x1="457.7562952888923" y1="220.90833928254227" x2="457.7562952888922" y2="243.408339282542" stroke="rgb(0%, 0%, 100%)" stroke-width="1.0" />
<line x1="477.7562952888924" y1="220.90833928254227" x2="477.7562952888925" y2="243.40833928254176" stroke="rgb(0%, 0%, 100%)" stroke-width="1.0" />
<line x1="559.3945066241877" y1="220.90833928253937" x2="559.394506624189" y2="243.40833928254358" stroke="rgb(0%, 0%, 100%)" stroke-width="1.0" />
<line x1="579.3945066241898" y1="220.90833928254295" x2="579.3945066241894" y2="243.4083392825413" stroke="rgb(0%, 0%, 100%)" stroke-width="1.0" />
<line x1="599.3945066241894" y1="220.9083392825401" x2="599.3945066241896" y2="243.40833928254074" stroke="rgb(0%, 0%, 100%)" stroke-width="1.0" />
<line x1="619.3945066241894" y1="220.9083392825383" x2="619.3945066241896" y2="243.40833928253693" stroke="rgb(0%, 0%, 100%)" stroke-width="1.0" />
<line x1="660.5983877432047" y1="179.70445816352577" x2="683.0983877432006" y2="179.70445816352577" stroke="rgb(0%, 0%, 100%)" stroke-width="1.0" />
<line x1="660.5983877432022" y1="159.70445816352492" x2="683.0983877432036" y2="159.70445816352657" stroke="rgb(0%, 0%, 100%)" stroke-width="1.0" />
<line x1="660.5983877432125" y1="139.70445816352975" x2="683.0983877432043" y2="139.70445816352793" stroke="rgb(0%, 0%, 100%)" stroke-width="1.0" />
<line x1="660.5983877432066" y1="119.70445816352645" x2="683.0983877432068" y2="119.70445816352748" stroke="rgb(0%, 0%, 100%)" stroke-width="1.0" />
<line x1="630.703535072037" y1="89.80960549235976" x2="630.7035350720388" y2="67.30960549235942" stroke="rgb(0%, 0%, 100%)" stroke-width="1.0" />
<line x1="610.7035350720379" y1="89.80960549235846" x2="610.7035350720404" y2="67.3096054923576" stroke="rgb(0%, 0%, 100%)" stroke-width="1.0" />
<line x1="683.0983877432041" y1="284.6122204015536" x2="660.5983877432027" y2="284.6122204015526" stroke="rgb(0%, 0%, 100%)" stroke-width="1.0" />
<line x1="683.0983877432029" y1="323.7550137410287" x2="660.5983877432022" y2="323.755013741029" stroke="rgb(0%, 0%, 100%)" stroke-width="1.0" />
<line x1="529.8254009565399" y1="272.97744495019055" x2="507.3254009565422" y2="272.97744495018975" stroke="rgb(0%, 0%, 100%)" stroke-width="1.0" />
<line x1="529.8254009565392" y1="292.9774449501908" x2="507.3254009565397" y2="292.97744495019" stroke="rgb(0%, 0%, 100%)" stroke-width="1.0" />
<line x1="529.8254009565408" y1="312.9774449501904" x2="507.325400956539" y2="312.9774449501905" stroke="rgb(0%, 0%, 100%)" stroke-width="1.0" />
<line x1="221.3449368441049" y1="243.40833928254142" x2="221.34493684410444" y2="220.9083392825408" stroke="rgb(0%, 0%, 100%)" stroke-width="1.0" />
<line x1="201.34493684410512" y1="243.40833928254142" x2="201.34493684410512" y2="220.90833928254148" stroke="rgb(0%, 0%, 100%)" stroke-width="1.0" />
<line x1="181.34493684410455" y1="243.40833928254153" x2="181.344936844105" y2="220.90833928254" stroke="rgb(0%, 0%, 100%)" stroke-width="1.0" />
<line x1="161.34493684410492" y1="243.40833928254187" x2="161.34493684410452" y2="220.9083392825416" stroke="rgb(0%, 0%, 100%)" stroke-width="1.0" />
<text x="25.0" y="31.830925959782235" text-anchor="middle" font-family="Verdana" font-size="7.5" fill="rgb(0%, 0%, 0%)" >G</text>
<text x="45.00000000000034" y="31.83092595978212" text-anchor="middle" font-family="Verdana" font-size="7.5" fill="rgb(0%, 0%, 0%)" >G</text>
<text x="65.00000000000017" y="31.830925959782235" text-anchor="middle" font-family="Verdana" font-size="7.5" fill="rgb(0%, 0%, 0%)" >U</text>
<text x="85.0000000000004" y="31.830925959782235" text-anchor="middle" font-family="Verdana" font-size="7.5" fill="rgb(0%, 0%, 0%)" >U</text>
<text x="105.00000000000017" y="31.830925959782235" text-anchor="middle" font-family="Verdana" font-size="7.5" fill="rgb(0%, 0%, 0%)" >G</text>
<text x="119.0894392211315" y="21.45124264238052" text-anchor="middle" font-family="Verdana" font-size="7.5" fill="rgb(0%, 0%, 0%)" >G</text>
<text x="136.5894427450025" y="21.451242642380407" text-anchor="middle" font-family="Verdana" font-size="7.5" fill="rgb(0%, 0%, 0%)" >G</text>
<text x="150.67888196613325" y="31.830925959782064" text-anchor="middle" font-family="Verdana" font-size="7.5" fill="rgb(0%, 0%, 0%)" >U</text>
<text x="170.67888196613325" y="31.830925959782007" text-anchor="middle" font-family="Verdana" font-size="7.5" fill="rgb(0%, 0%, 0%)" >U</text>
<text x="190.6788819661336" y="31.83092595978229" text-anchor="middle" font-family="Verdana" font-size="7.5" fill="rgb(0%, 0%, 0%)" >G</text>
<text x="210.67888196613313" y="31.830925959782178" text-anchor="middle" font-family="Verdana" font-size="7.5" fill="rgb(0%, 0%, 0%)" >G</text>
<text x="230.67888196613302" y="31.830925959782178" text-anchor="middle" font-family="Verdana" font-size="7.5" fill="rgb(0%, 0%, 0%)" >G</text>
<text x="250.67888196613347" y="31.83092595978212" text-anchor="middle" font-family="Verdana" font-size="7.5" fill="rgb(0%, 0%, 0%)" >A</text>
<text x="279.5506160664983" y="14.950282592014673" text-anchor="middle" font-family="Verdana" font-size="7.5" fill="rgb(0%, 0%, 0%)" >A</text>
<text x="308.4223501668633" y="31.830925959781894" text-anchor="middle" font-family="Verdana" font-size="7.5" fill="rgb(0%, 0%, 0%)" >G</text>
<text x="328.4223501668641" y="31.830925959781837" text-anchor="middle" font-family="Verdana" font-size="7.5" fill="rgb(0%, 0%, 0%)" >U</text>
<text x="348.4223501668636" y="31.83092595978178" text-anchor="middle" font-family="Verdana" font-size="7.5" fill="rgb(0%, 0%, 0%)" >A</text>
<text x="368.42235016686396" y="31.830925959781666" text-anchor="middle" font-family="Verdana" font-size="7.5" fill="rgb(0%, 0%, 0%)" >U</text>
<text x="388.4223501668635" y="31.83092595978178" text-anchor="middle" font-family="Verdana" font-size="7.5" fill="rgb(0%, 0%, 0%)" >C</text>
<text x="408.4223501668635" y="31.83092595978144" text-anchor="middle" font-family="Verdana" font-size="7.5" fill="rgb(0%, 0%, 0%)" >A</text>
<text x="428.42235016686374" y="31.830925959781325" text-anchor="middle" font-family="Verdana" font-size="7.5" fill="rgb(0%, 0%, 0%)" >U</text>
<text x="448.4223501668636" y="31.830925959781098" text-anchor="middle" font-family="Verdana" font-size="7.5" fill="rgb(0%, 0%, 0%)" >G</text>
<text x="468.4223501668641" y="31.83092595978121" text-anchor="middle" font-family="Verdana" font-size="7.5" fill="rgb(0%, 0%, 0%)" >G</text>
<text x="482.4581716959472" y="21.37884930333712" text-anchor="middle" font-family="Verdana" font-size="7.5" fill="rgb(0%, 0%, 0%)" >C</text>
<text x="499.9575594167283" y="21.231805682984145" text-anchor="middle" font-family="Verdana" font-size="7.5" fill="rgb(0%, 0%, 0%)" >U</text>
<text x="514.1670397737873" y="31.446543095704442" text-anchor="middle" font-family="Verdana" font-size="7.5" fill="rgb(0%, 0%, 0%)" >A</text>
<text x="519.6028009127451" y="48.08092595978184" text-anchor="middle" font-family="Verdana" font-size="7.5" fill="rgb(0%, 0%, 0%)" >A</text>
<text x="514.1670397737878" y="64.71530882385787" text-anchor="middle" font-family="Verdana" font-size="7.5" fill="rgb(0%, 0%, 0%)" >U</text>
<text x="499.957559416728" y="74.93004623657805" text-anchor="middle" font-family="Verdana" font-size="7.5" fill="rgb(0%, 0%, 0%)" >C</text>
<text x="482.45817169594767" y="74.78300261622451" text-anchor="middle" font-family="Verdana" font-size="7.5" fill="rgb(0%, 0%, 0%)" >A</text>
<text x="468.4223501668636" y="64.3309259597815" text-anchor="middle" font-family="Verdana" font-size="7.5" fill="rgb(0%, 0%, 0%)" >C</text>
<text x="448.4223501668635" y="64.33092595978155" text-anchor="middle" font-family="Verdana" font-size="7.5" fill="rgb(0%, 0%, 0%)" >C</text>
<text x="428.4223501668635" y="64.33092595978093" text-anchor="middle" font-family="Verdana" font-size="7.5" fill="rgb(0%, 0%, 0%)" >A</text>
<text x="408.4223501668633" y="64.33092595978087" text-anchor="middle" font-family="Verdana" font-size="7.5" fill="rgb(0%, 0%, 0%)" >U</text>
<text x="388.4223501668636" y="64.33092595978133" text-anchor="middle" font-family="Verdana" font-size="7.5" fill="rgb(0%, 0%, 0%)" >G</text>
<text x="368.4223501668636" y="64.3309259597819" text-anchor="middle" font-family="Verdana" font-size="7.5" fill="rgb(0%, 0%, 0%)" >A</text>
<text x="348.42235016686305" y="64.33092595978246" text-anchor="middle" font-family="Verdana" font-size="7.5" fill="rgb(0%, 0%, 0%)" >U</text>
<text x="328.4223501668636" y="64.33092595978178" text-anchor="middle" font-family="Verdana" font-size="7.5" fill="rgb(0%, 0%, 0%)" >G</text>
<text x="308.42235016686305" y="64.33092595978235" text-anchor="middle" font-family="Verdana" font-size="7.5" fill="rgb(0%, 0%, 0%)" >C</text>
<text x="306.05566597179103" y="74.5859758650746" text-anchor="middle" font-family="Verdana" font-size="7.5" fill="rgb(0%, 0%, 0%)" >A</text>
<text x="295.8006160664982" y="76.95266006014731" text-anchor="middle" font-family="Verdana" font-size="7.5" fill="rgb(0%, 0%, 0%)" >A</text>
<text x="295.8006160664982" y="96.95266006014754" text-anchor="middle" font-family="Verdana" font-size="7.5" fill="rgb(0%, 0%, 0%)" >U</text>
<text x="295.8006160664982" y="116.95266006014737" text-anchor="middle" font-family="Verdana" font-size="7.5" fill="rgb(0%, 0%, 0%)" >C</text>
<text x="295.8006160664983" y="136.95266006014742" text-anchor="middle" font-family="Verdana" font-size="7.5" fill="rgb(0%, 0%, 0%)" >G</text>
<text x="295.8006160664983" y="156.9526600601473" text-anchor="middle" font-family="Verdana" font-size="7.5" fill="rgb(0%, 0%, 0%)" >G</text>
<text x="295.8006160664982" y="176.95266006014737" text-anchor="middle" font-family="Verdana" font-size="7.5" fill="rgb(0%, 0%, 0%)" >G</text>
<text x="337.756295288893" y="218.90833928254114" text-anchor="middle" font-family="Verdana" font-size="7.5" fill="rgb(0%, 0%, 0%)" >U</text>
<text x="357.7562952888923" y="218.90833928254125" text-anchor="middle" font-family="Verdana" font-size="7.5" fill="rgb(0%, 0%, 0%)" >U</text>
<text x="377.756295288893" y="218.90833928254125" text-anchor="middle" font-family="Verdana" font-size="7.5" fill="rgb(0%, 0%, 0%)" >G</text>
<text x="397.75629528889266" y="218.9083392825417" text-anchor="middle" font-family="Verdana" font-size="7.5" fill="rgb(0%, 0%, 0%)" >A</text>
<text x="417.7562952888923" y="218.90833928254125" text-anchor="middle" font-family="Verdana" font-size="7.5" fill="rgb(0%, 0%, 0%)" >A</text>
<text x="437.7562952888928" y="218.90833928254142" text-anchor="middle" font-family="Verdana" font-size="7.5" fill="rgb(0%, 0%, 0%)" >C</text>
<text x="457.7562952888923" y="218.90833928254227" text-anchor="middle" font-family="Verdana" font-size="7.5" fill="rgb(0%, 0%, 0%)" >A</text>
<text x="477.7562952888923" y="218.90833928254227" text-anchor="middle" font-family="Verdana" font-size="7.5" fill="rgb(0%, 0%, 0%)" >C</text>
<text x="485.52901755147406" y="206.20668248449505" text-anchor="middle" font-family="Verdana" font-size="7.5" fill="rgb(0%, 0%, 0%)" >U</text>
<text x="497.09567584637415" y="196.8323259665409" text-anchor="middle" font-family="Verdana" font-size="7.5" fill="rgb(0%, 0%, 0%)" >U</text>
<text x="511.12911354921613" y="191.859208906123" text-anchor="middle" font-family="Verdana" font-size="7.5" fill="rgb(0%, 0%, 0%)" >A</text>
<text x="526.0248125329078" y="191.85974629532683" text-anchor="middle" font-family="Verdana" font-size="7.5" fill="rgb(0%, 0%, 0%)" >A</text>
<text x="540.0522911707885" y="196.8307372934824" text-anchor="middle" font-family="Verdana" font-size="7.5" fill="rgb(0%, 0%, 0%)" >U</text>
<text x="551.6217843616062" y="206.2066824844925" text-anchor="middle" font-family="Verdana" font-size="7.5" fill="rgb(0%, 0%, 0%)" >U</text>
<text x="559.3945066241874" y="218.90833928253937" text-anchor="middle" font-family="Verdana" font-size="7.5" fill="rgb(0%, 0%, 0%)" >G</text>
<text x="579.39450662419" y="218.90833928254295" text-anchor="middle" font-family="Verdana" font-size="7.5" fill="rgb(0%, 0%, 0%)" >G</text>
<text x="599.3945066241893" y="218.9083392825401" text-anchor="middle" font-family="Verdana" font-size="7.5" fill="rgb(0%, 0%, 0%)" >G</text>
<text x="619.3945066241893" y="218.9083392825383" text-anchor="middle" font-family="Verdana" font-size="7.5" fill="rgb(0%, 0%, 0%)" >U</text>
<text x="623.5110595832678" y="209.10119341415162" text-anchor="middle" font-family="Verdana" font-size="7.5" fill="rgb(0%, 0%, 0%)" >U</text>
<text x="629.4417265524767" y="200.27070205812123" text-anchor="middle" font-family="Verdana" font-size="7.5" fill="rgb(0%, 0%, 0%)" >A</text>
<text x="636.9639103006982" y="192.7490787606801" text-anchor="middle" font-family="Verdana" font-size="7.5" fill="rgb(0%, 0%, 0%)" >A</text>
<text x="645.7912418748167" y="186.82101112260426" text-anchor="middle" font-family="Verdana" font-size="7.5" fill="rgb(0%, 0%, 0%)" >A</text>
<text x="655.5983877432047" y="182.70445816352577" text-anchor="middle" font-family="Verdana" font-size="7.5" fill="rgb(0%, 0%, 0%)" >A</text>
<text x="655.5983877432022" y="162.70445816352452" text-anchor="middle" font-family="Verdana" font-size="7.5" fill="rgb(0%, 0%, 0%)" >C</text>
<text x="655.5983877432125" y="142.70445816353015" text-anchor="middle" font-family="Verdana" font-size="7.5" fill="rgb(0%, 0%, 0%)" >G</text>
<text x="655.5983877432066" y="122.70445816352623" text-anchor="middle" font-family="Verdana" font-size="7.5" fill="rgb(0%, 0%, 0%)" >G</text>
<text x="645.2189972414524" y="122.08347907363435" text-anchor="middle" font-family="Verdana" font-size="7.5" fill="rgb(0%, 0%, 0%)" >U</text>
<text x="635.8559398007117" y="117.55703081360144" text-anchor="middle" font-family="Verdana" font-size="7.5" fill="rgb(0%, 0%, 0%)" >G</text>
<text x="631.3245141619318" y="108.18899599411287" text-anchor="middle" font-family="Verdana" font-size="7.5" fill="rgb(0%, 0%, 0%)" >G</text>
<text x="630.7035350720366" y="97.80960549235976" text-anchor="middle" font-family="Verdana" font-size="7.5" fill="rgb(0%, 0%, 0%)" >G</text>
<text x="610.7035350720373" y="97.80960549235846" text-anchor="middle" font-family="Verdana" font-size="7.5" fill="rgb(0%, 0%, 0%)" >G</text>
<text x="596.6677135429525" y="108.26168214880045" text-anchor="middle" font-family="Verdana" font-size="7.5" fill="rgb(0%, 0%, 0%)" >G</text>
<text x="579.1683258221722" y="108.40872576914853" text-anchor="middle" font-family="Verdana" font-size="7.5" fill="rgb(0%, 0%, 0%)" >A</text>
<text x="564.9588454651132" y="98.19398835642897" text-anchor="middle" font-family="Verdana" font-size="7.5" fill="rgb(0%, 0%, 0%)" >C</text>
<text x="559.523084326157" y="81.55960549235914" text-anchor="middle" font-family="Verdana" font-size="7.5" fill="rgb(0%, 0%, 0%)" >G</text>
<text x="564.9588454651155" y="64.92522262827742" text-anchor="middle" font-family="Verdana" font-size="7.5" fill="rgb(0%, 0%, 0%)" >A</text>
<text x="579.1683258221758" y="54.710485215557924" text-anchor="middle" font-family="Verdana" font-size="7.5" fill="rgb(0%, 0%, 0%)" >U</text>
<text x="596.6677135429568" y="54.857528835911125" text-anchor="middle" font-family="Verdana" font-size="7.5" fill="rgb(0%, 0%, 0%)" >C</text>
<text x="610.703535072041" y="65.3096054923576" text-anchor="middle" font-family="Verdana" font-size="7.5" fill="rgb(0%, 0%, 0%)" >C</text>
<text x="630.7035350720391" y="65.30960549235942" text-anchor="middle" font-family="Verdana" font-size="7.5" fill="rgb(0%, 0%, 0%)" >C</text>
<text x="643.361255618602" y="47.71518638598849" text-anchor="middle" font-family="Verdana" font-size="7.5" fill="rgb(0%, 0%, 0%)" >G</text>
<text x="662.8610053381933" y="38.24461549076091" text-anchor="middle" font-family="Verdana" font-size="7.5" fill="rgb(0%, 0%, 0%)" >U</text>
<text x="684.5149631411066" y="39.174239279219705" text-anchor="middle" font-family="Verdana" font-size="7.5" fill="rgb(0%, 0%, 0%)" >A</text>
<text x="703.1278718739284" y="50.27773736002587" text-anchor="middle" font-family="Verdana" font-size="7.5" fill="rgb(0%, 0%, 0%)" >A</text>
<text x="714.233496052148" y="68.89216711784161" text-anchor="middle" font-family="Verdana" font-size="7.5" fill="rgb(0%, 0%, 0%)" >C</text>
<text x="715.1642837039976" y="90.54262048994116" text-anchor="middle" font-family="Verdana" font-size="7.5" fill="rgb(0%, 0%, 0%)" >A</text>
<text x="705.6928068495793" y="110.04673761696898" text-anchor="middle" font-family="Verdana" font-size="7.5" fill="rgb(0%, 0%, 0%)" >U</text>
<text x="688.0983877432068" y="122.7044581635277" text-anchor="middle" font-family="Verdana" font-size="7.5" fill="rgb(0%, 0%, 0%)" >C</text>
<text x="688.0983877432043" y="142.70445816352753" text-anchor="middle" font-family="Verdana" font-size="7.5" fill="rgb(0%, 0%, 0%)" >C</text>
<text x="688.0983877432036" y="162.70445816352697" text-anchor="middle" font-family="Verdana" font-size="7.5" fill="rgb(0%, 0%, 0%)" >G</text>
<text x="688.0983877432006" y="182.70445816352577" text-anchor="middle" font-family="Verdana" font-size="7.5" fill="rgb(0%, 0%, 0%)" >U</text>
<text x="705.6641399243156" y="191.8921047702438" text-anchor="middle" font-family="Verdana" font-size="7.5" fill="rgb(0%, 0%, 0%)" >C</text>
<text x="718.8216453297234" y="206.71567386317508" text-anchor="middle" font-family="Verdana" font-size="7.5" fill="rgb(0%, 0%, 0%)" >C</text>
<text x="725.8609598694663" y="225.2530782182032" text-anchor="middle" font-family="Verdana" font-size="7.5" fill="rgb(0%, 0%, 0%)" >U</text>
<text x="725.860313468452" y="245.06712447032976" text-anchor="middle" font-family="Verdana" font-size="7.5" fill="rgb(0%, 0%, 0%)" >A</text>
<text x="718.8236211514943" y="263.59774136282533" text-anchor="middle" font-family="Verdana" font-size="7.5" fill="rgb(0%, 0%, 0%)" >A</text>
<text x="705.6641399243176" y="278.4245737948369" text-anchor="middle" font-family="Verdana" font-size="7.5" fill="rgb(0%, 0%, 0%)" >C</text>
<text x="688.0983877432041" y="287.6122204015538" text-anchor="middle" font-family="Verdana" font-size="7.5" fill="rgb(0%, 0%, 0%)" >G</text>
<text x="697.2865886938241" y="307.1836170712892" text-anchor="middle" font-family="Verdana" font-size="7.5" fill="rgb(0%, 0%, 0%)" >G</text>
<text x="688.0983877432029" y="326.7550137410286" text-anchor="middle" font-family="Verdana" font-size="7.5" fill="rgb(0%, 0%, 0%)" >C</text>
<text x="699.7534558174857" y="339.8091279292072" text-anchor="middle" font-family="Verdana" font-size="7.5" fill="rgb(0%, 0%, 0%)" >G</text>
<text x="702.4365984337503" y="357.10222640099664" text-anchor="middle" font-family="Verdana" font-size="7.5" fill="rgb(0%, 0%, 0%)" >A</text>
<text x="695.2851423499071" y="373.07430156157307" text-anchor="middle" font-family="Verdana" font-size="7.5" fill="rgb(0%, 0%, 0%)" >C</text>
<text x="680.5983950154039" y="382.59007592767966" text-anchor="middle" font-family="Verdana" font-size="7.5" fill="rgb(0%, 0%, 0%)" >A</text>
<text x="663.0983804710017" y="382.59007592768285" text-anchor="middle" font-family="Verdana" font-size="7.5" fill="rgb(0%, 0%, 0%)" >G</text>
<text x="648.4116331364537" y="373.07430156140003" text-anchor="middle" font-family="Verdana" font-size="7.5" fill="rgb(0%, 0%, 0%)" >A</text>
<text x="641.2601770527419" y="357.1022264007461" text-anchor="middle" font-family="Verdana" font-size="7.5" fill="rgb(0%, 0%, 0%)" >C</text>
<text x="643.9433196689176" y="339.8091279292057" text-anchor="middle" font-family="Verdana" font-size="7.5" fill="rgb(0%, 0%, 0%)" >U</text>
<text x="655.5983877432022" y="326.7550137410291" text-anchor="middle" font-family="Verdana" font-size="7.5" fill="rgb(0%, 0%, 0%)" >G</text>
<text x="647.4915166640633" y="314.52152541348494" text-anchor="middle" font-family="Verdana" font-size="7.5" fill="rgb(0%, 0%, 0%)" >C</text>
<text x="647.4915166640642" y="299.845708729094" text-anchor="middle" font-family="Verdana" font-size="7.5" fill="rgb(0%, 0%, 0%)" >A</text>
<text x="655.5983877432027" y="287.61222040155235" text-anchor="middle" font-family="Verdana" font-size="7.5" fill="rgb(0%, 0%, 0%)" >C</text>
<text x="633.0188104570168" y="273.98791656872424" text-anchor="middle" font-family="Verdana" font-size="7.5" fill="rgb(0%, 0%, 0%)" >G</text>
<text x="619.3945066241897" y="251.40833928253693" text-anchor="middle" font-family="Verdana" font-size="7.5" fill="rgb(0%, 0%, 0%)" >G</text>
<text x="599.3945066241897" y="251.40833928254074" text-anchor="middle" font-family="Verdana" font-size="7.5" fill="rgb(0%, 0%, 0%)" >C</text>
<text x="579.3945066241893" y="251.4083392825413" text-anchor="middle" font-family="Verdana" font-size="7.5" fill="rgb(0%, 0%, 0%)" >C</text>
<text x="559.3945066241893" y="251.40833928254358" text-anchor="middle" font-family="Verdana" font-size="7.5" fill="rgb(0%, 0%, 0%)" >C</text>
<text x="549.641957633348" y="266.224895959351" text-anchor="middle" font-family="Verdana" font-size="7.5" fill="rgb(0%, 0%, 0%)" >U</text>
<text x="534.8254009565399" y="275.9774449501907" text-anchor="middle" font-family="Verdana" font-size="7.5" fill="rgb(0%, 0%, 0%)" >G</text>
<text x="534.8254009565392" y="295.97744495019094" text-anchor="middle" font-family="Verdana" font-size="7.5" fill="rgb(0%, 0%, 0%)" >C</text>
<text x="534.8254009565408" y="315.9774449501904" text-anchor="middle" font-family="Verdana" font-size="7.5" fill="rgb(0%, 0%, 0%)" >C</text>
<text x="541.4735705613573" y="332.16548524984603" text-anchor="middle" font-family="Verdana" font-size="7.5" fill="rgb(0%, 0%, 0%)" >U</text>
<text x="534.747351305313" y="348.3212514761019" text-anchor="middle" font-family="Verdana" font-size="7.5" fill="rgb(0%, 0%, 0%)" >C</text>
<text x="518.5754009565405" y="355.00846537684265" text-anchor="middle" font-family="Verdana" font-size="7.5" fill="rgb(0%, 0%, 0%)" >U</text>
<text x="502.4034506077607" y="348.3212514761" text-anchor="middle" font-family="Verdana" font-size="7.5" fill="rgb(0%, 0%, 0%)" >U</text>
<text x="495.67723135171826" y="332.1654852498456" text-anchor="middle" font-family="Verdana" font-size="7.5" fill="rgb(0%, 0%, 0%)" >A</text>
<text x="502.325400956539" y="315.9774449501905" text-anchor="middle" font-family="Verdana" font-size="7.5" fill="rgb(0%, 0%, 0%)" >G</text>
<text x="502.3254009565397" y="295.9774449501898" text-anchor="middle" font-family="Verdana" font-size="7.5" fill="rgb(0%, 0%, 0%)" >G</text>
<text x="502.3254009565422" y="275.9774449501896" text-anchor="middle" font-family="Verdana" font-size="7.5" fill="rgb(0%, 0%, 0%)" >U</text>
<text x="477.75629528889255" y="251.40833928254176" text-anchor="middle" font-family="Verdana" font-size="7.5" fill="rgb(0%, 0%, 0%)" >G</text>
<text x="457.7562952888922" y="251.408339282542" text-anchor="middle" font-family="Verdana" font-size="7.5" fill="rgb(0%, 0%, 0%)" >U</text>
<text x="437.7562952888922" y="251.40833928254233" text-anchor="middle" font-family="Verdana" font-size="7.5" fill="rgb(0%, 0%, 0%)" >G</text>
<text x="417.7562952888921" y="251.408339282542" text-anchor="middle" font-family="Verdana" font-size="7.5" fill="rgb(0%, 0%, 0%)" >U</text>
<text x="397.7562952888928" y="251.40833928254187" text-anchor="middle" font-family="Verdana" font-size="7.5" fill="rgb(0%, 0%, 0%)" >U</text>
<text x="377.7562952888928" y="251.40833928254062" text-anchor="middle" font-family="Verdana" font-size="7.5" fill="rgb(0%, 0%, 0%)" >C</text>
<text x="357.7562952888922" y="251.4083392825416" text-anchor="middle" font-family="Verdana" font-size="7.5" fill="rgb(0%, 0%, 0%)" >A</text>
<text x="337.756295288893" y="251.4083392825412" text-anchor="middle" font-family="Verdana" font-size="7.5" fill="rgb(0%, 0%, 0%)" >A</text>
<text x="332.34067815016823" y="264.57216152553667" text-anchor="middle" font-family="Verdana" font-size="7.5" fill="rgb(0%, 0%, 0%)" >U</text>
<text x="323.99331663661275" y="276.1072093496799" text-anchor="middle" font-family="Verdana" font-size="7.5" fill="rgb(0%, 0%, 0%)" >G</text>
<text x="313.18080439127306" y="285.3676414782541" text-anchor="middle" font-family="Verdana" font-size="7.5" fill="rgb(0%, 0%, 0%)" >A</text>
<text x="300.5026189180373" y="291.8414687855013" text-anchor="middle" font-family="Verdana" font-size="7.5" fill="rgb(0%, 0%, 0%)" >A</text>
<text x="286.66104211070086" y="295.1700500997655" text-anchor="middle" font-family="Verdana" font-size="7.5" fill="rgb(0%, 0%, 0%)" >C</text>
<text x="272.4293719242334" y="295.16876733972526" text-anchor="middle" font-family="Verdana" font-size="7.5" fill="rgb(0%, 0%, 0%)" >A</text>
<text x="258.5892171082658" y="291.837994781265" text-anchor="middle" font-family="Verdana" font-size="7.5" fill="rgb(0%, 0%, 0%)" >G</text>
<text x="245.91551992267983" y="285.36435387378583" text-anchor="middle" font-family="Verdana" font-size="7.5" fill="rgb(0%, 0%, 0%)" >U</text>
<text x="235.1033552871325" y="276.10225950216864" text-anchor="middle" font-family="Verdana" font-size="7.5" fill="rgb(0%, 0%, 0%)" >C</text>
<text x="226.7605539828292" y="264.57216152553667" text-anchor="middle" font-family="Verdana" font-size="7.5" fill="rgb(0%, 0%, 0%)" >G</text>
<text x="221.344936844105" y="251.40833928254142" text-anchor="middle" font-family="Verdana" font-size="7.5" fill="rgb(0%, 0%, 0%)" >U</text>
<text x="201.34493684410512" y="251.40833928254142" text-anchor="middle" font-family="Verdana" font-size="7.5" fill="rgb(0%, 0%, 0%)" >U</text>
<text x="181.34493684410444" y="251.40833928254153" text-anchor="middle" font-family="Verdana" font-size="7.5" fill="rgb(0%, 0%, 0%)" >C</text>
<text x="161.344936844105" y="251.40833928254187" text-anchor="middle" font-family="Verdana" font-size="7.5" fill="rgb(0%, 0%, 0%)" >C</text>
<text x="144.20849217651397" y="254.9570736697808" text-anchor="middle" font-family="Verdana" font-size="7.5" fill="rgb(0%, 0%, 0%)" >G</text>
<text x="130.63730522997986" y="243.90835716247454" text-anchor="middle" font-family="Verdana" font-size="7.5" fill="rgb(0%, 0%, 0%)" >A</text>
<text x="130.63730522997986" y="226.4083214026083" text-anchor="middle" font-family="Verdana" font-size="7.5" fill="rgb(0%, 0%, 0%)" >A</text>
<text x="144.20849217651386" y="215.3596048953014" text-anchor="middle" font-family="Verdana" font-size="7.5" fill="rgb(0%, 0%, 0%)" >A</text>
<text x="161.34493684410444" y="218.9083392825416" text-anchor="middle" font-family="Verdana" font-size="7.5" fill="rgb(0%, 0%, 0%)" >G</text>
<text x="181.34493684410512" y="218.90833928254" text-anchor="middle" font-family="Verdana" font-size="7.5" fill="rgb(0%, 0%, 0%)" >G</text>
<text x="201.34493684410512" y="218.90833928254148" text-anchor="middle" font-family="Verdana" font-size="7.5" fill="rgb(0%, 0%, 0%)" >A</text>
<text x="221.34493684410432" y="218.9083392825408" text-anchor="middle" font-family="Verdana" font-size="7.5" fill="rgb(0%, 0%, 0%)" >A</text>
<text x="227.37347638727016" y="204.67047794996319" text-anchor="middle" font-family="Verdana" font-size="7.5" fill="rgb(0%, 0%, 0%)" >G</text>
<text x="236.82178375558675" y="192.4241552715393" text-anchor="middle" font-family="Verdana" font-size="7.5" fill="rgb(0%, 0%, 0%)" >C</text>
<text x="249.06275473392026" y="182.98119960331252" text-anchor="middle" font-family="Verdana" font-size="7.5" fill="rgb(0%, 0%, 0%)" >A</text>
<text x="263.30061606649843" y="176.95266006014714" text-anchor="middle" font-family="Verdana" font-size="7.5" fill="rgb(0%, 0%, 0%)" >U</text>
<text x="263.3006160664983" y="156.95266006014737" text-anchor="middle" font-family="Verdana" font-size="7.5" fill="rgb(0%, 0%, 0%)" >C</text>
<text x="263.30061606649843" y="136.95266006014725" text-anchor="middle" font-family="Verdana" font-size="7.5" fill="rgb(0%, 0%, 0%)" >C</text>
<text x="263.3006160664982" y="116.95266006014737" text-anchor="middle" font-family="Verdana" font-size="7.5" fill="rgb(0%, 0%, 0%)" >G</text>
<text x="263.3006160664983" y="96.9526600601472" text-anchor="middle" font-family="Verdana" font-size="7.5" fill="rgb(0%, 0%, 0%)" >G</text>
<text x="263.30061606649843" y="76.9526600601472" text-anchor="middle" font-family="Verdana" font-size="7.5" fill="rgb(0%, 0%, 0%)" >U</text>
<text x="253.0455661612064" y="74.58597586507449" text-anchor="middle" font-family="Verdana" font-size="7.5" fill="rgb(0%, 0%, 0%)" >A</text>
<text x="250.67888196613313" y="64.33092595978201" text-anchor="middle" font-family="Verdana" font-size="7.5" fill="rgb(0%, 0%, 0%)" >U</text>
<text x="230.67888196613302" y="64.33092595978212" text-anchor="middle" font-family="Verdana" font-size="7.5" fill="rgb(0%, 0%, 0%)" >C</text>
<text x="210.67888196613347" y="64.33092595978218" text-anchor="middle" font-family="Verdana" font-size="7.5" fill="rgb(0%, 0%, 0%)" >C</text>
<text x="190.67888196613325" y="64.33092595978212" text-anchor="middle" font-family="Verdana" font-size="7.5" fill="rgb(0%, 0%, 0%)" >C</text>
<text x="170.67888196613347" y="64.33092595978223" text-anchor="middle" font-family="Verdana" font-size="7.5" fill="rgb(0%, 0%, 0%)" >A</text>
<text x="150.67888196613313" y="64.33092595978223" text-anchor="middle" font-family="Verdana" font-size="7.5" fill="rgb(0%, 0%, 0%)" >A</text>
<text x="136.58944274500226" y="74.71060927718395" text-anchor="middle" font-family="Verdana" font-size="7.5" fill="rgb(0%, 0%, 0%)" >G</text>
<text x="119.08943922113127" y="74.710609277184" text-anchor="middle" font-family="Verdana" font-size="7.5" fill="rgb(0%, 0%, 0%)" >A</text>
<text x="105.00000000000006" y="64.33092595978223" text-anchor="middle" font-family="Verdana" font-size="7.5" fill="rgb(0%, 0%, 0%)" >C</text>
<text x="85.00000000000028" y="64.33092595978223" text-anchor="middle" font-family="Verdana" font-size="7.5" fill="rgb(0%, 0%, 0%)" >A</text>
<text x="65.0000000000004" y="64.33092595978223" text-anchor="middle" font-family="Verdana" font-size="7.5" fill="rgb(0%, 0%, 0%)" >A</text>
<text x="45.0" y="64.33092595978206" text-anchor="middle" font-family="Verdana" font-size="7.5" fill="rgb(0%, 0%, 0%)" >U</text>
<text x="25.00000000000034" y="64.33092595978223" text-anchor="middle" font-family="Verdana" font-size="7.5" fill="rgb(0%, 0%, 0%)" >C</text>
<line x1="17.5" y1="28.830925959782235" x2="12.5" y2="28.830925959782235" stroke="rgb(25%, 25%, 25%)" stroke-width="1.0" />
<text x="5.0" y="31.83092595978235" text-anchor="middle" font-family="Verdana" font-size="7.5" fill="rgb(25%, 25%, 25%)" >1</text>
<line x1="190.67888196613362" y1="21.33092595978229" x2="190.67888196613364" y2="16.33092595978229" stroke="rgb(25%, 25%, 25%)" stroke-width="1.0" />
<text x="190.67888196613367" y="11.830925959782292" text-anchor="middle" font-family="Verdana" font-size="7.5" fill="rgb(25%, 25%, 25%)" >10</text>
<line x1="408.42235016686345" y1="21.33092595978144" x2="408.4223501668634" y2="16.33092595978144" stroke="rgb(25%, 25%, 25%)" stroke-width="1.0" />
<text x="408.4223501668633" y="11.830925959781439" text-anchor="middle" font-family="Verdana" font-size="7.5" fill="rgb(25%, 25%, 25%)" >20</text>
<line x1="480.06874123959903" y1="78.89219540403622" x2="478.47578760203334" y2="83.63165726257733" stroke="rgb(25%, 25%, 25%)" stroke-width="1.0" />
<text x="476.0863571456847" y="93.74085005038899" text-anchor="middle" font-family="Verdana" font-size="7.5" fill="rgb(25%, 25%, 25%)" >30</text>
<line x1="311.3589668306903" y1="76.88927672397358" x2="314.8945007366231" y2="80.42481062990623" stroke="rgb(25%, 25%, 25%)" stroke-width="1.0" />
<text x="320.1978015955224" y="88.72811148880515" text-anchor="middle" font-family="Verdana" font-size="7.5" fill="rgb(25%, 25%, 25%)" >40</text>
<line x1="397.75629528889266" y1="208.4083392825417" x2="397.75629528889266" y2="203.4083392825417" stroke="rgb(25%, 25%, 25%)" stroke-width="1.0" />
<text x="397.75629528889266" y="198.9083392825417" text-anchor="middle" font-family="Verdana" font-size="7.5" fill="rgb(25%, 25%, 25%)" >50</text>
<line x1="557.2630432861007" y1="198.26439579240235" x2="561.0238825690969" y2="194.96953799767562" stroke="rgb(25%, 25%, 25%)" stroke-width="1.0" />
<text x="566.6651414935915" y="193.02725130558548" text-anchor="middle" font-family="Verdana" font-size="7.5" fill="rgb(25%, 25%, 25%)" >60</text>
<line x1="648.0983877432022" y1="159.70445816352304" x2="643.0983877432022" y2="159.70445816352208" stroke="rgb(25%, 25%, 25%)" stroke-width="1.0" />
<text x="635.5983877432022" y="162.70445816352066" text-anchor="middle" font-family="Verdana" font-size="7.5" fill="rgb(25%, 25%, 25%)" >70</text>
<line x1="558.9060690044113" y1="99.6227463219056" x2="554.8708846972767" y2="102.57525163222334" stroke="rgb(25%, 25%, 25%)" stroke-width="1.0" />
<text x="548.8181082365747" y="110.00400959770002" text-anchor="middle" font-family="Verdana" font-size="7.5" fill="rgb(25%, 25%, 25%)" >80</text>
<line x1="708.4310446916352" y1="41.97430846302581" x2="711.9664932367731" y2="38.4386891983591" stroke="rgb(25%, 25%, 25%)" stroke-width="1.0" />
<text x="717.2696660544799" y="36.13526030135904" text-anchor="middle" font-family="Verdana" font-size="7.5" fill="rgb(25%, 25%, 25%)" >90</text>
<line x1="733.237844074802" y1="220.89971964743557" x2="738.155766878359" y2="219.99748060025718" stroke="rgb(25%, 25%, 25%)" stroke-width="1.0" />
<text x="745.5326510836946" y="221.64412202948955" text-anchor="middle" font-family="Verdana" font-size="7.5" fill="rgb(25%, 25%, 25%)" >100</text>
<line x1="682.7247342507835" y1="386.7823413187846" x2="684.1422937410367" y2="391.5771849128545" stroke="rgb(25%, 25%, 25%)" stroke-width="1.0" />
<text x="686.2686329764164" y="401.7694503039593" text-anchor="middle" font-family="Verdana" font-size="7.5" fill="rgb(25%, 25%, 25%)" >110</text>
<line x1="615.707391682689" y1="254.93943286693474" x2="613.2493150550218" y2="259.2934952565333" stroke="rgb(25%, 25%, 25%)" stroke-width="1.0" />
<text x="609.5622001135212" y="268.8245888409311" text-anchor="middle" font-family="Verdana" font-size="7.5" fill="rgb(25%, 25%, 25%)" >120</text>
<line x1="518.5754009565408" y1="359.50846537684265" x2="518.5754009565409" y2="364.50846537684265" stroke="rgb(25%, 25%, 25%)" stroke-width="1.0" />
<text x="518.5754009565411" y="375.00846537684265" text-anchor="middle" font-family="Verdana" font-size="7.5" fill="rgb(25%, 25%, 25%)" >130</text>
<line x1="397.7562952888925" y1="255.90833928254187" x2="397.7562952888923" y2="260.9083392825419" stroke="rgb(25%, 25%, 25%)" stroke-width="1.0" />
<text x="397.7562952888921" y="271.4083392825419" text-anchor="middle" font-family="Verdana" font-size="7.5" fill="rgb(25%, 25%, 25%)" >140</text>
<line x1="255.9878668288073" y1="295.8724085253919" x2="254.25363330916832" y2="300.56201768814316" stroke="rgb(25%, 25%, 25%)" stroke-width="1.0" />
<text x="251.65228302970985" y="310.59643143227004" text-anchor="middle" font-family="Verdana" font-size="7.5" fill="rgb(25%, 25%, 25%)" >150</text>
<line x1="123.86369249151915" y1="220.18835704420883" x2="119.34795066587867" y2="218.04171413860922" stroke="rgb(25%, 25%, 25%)" stroke-width="1.0" />
<text x="112.57433792741797" y="217.82174978020976" text-anchor="middle" font-family="Verdana" font-size="7.5" fill="rgb(25%, 25%, 25%)" >160</text>
<line x1="255.80061606649832" y1="153.95266006014737" x2="250.80061606649832" y2="153.95266006014737" stroke="rgb(25%, 25%, 25%)" stroke-width="1.0" />
<text x="243.30061606649832" y="156.95266006014737" text-anchor="middle" font-family="Verdana" font-size="7.5" fill="rgb(25%, 25%, 25%)" >170</text>
<line x1="170.6788819661335" y1="68.83092595978223" x2="170.6788819661335" y2="73.83092595978223" stroke="rgb(25%, 25%, 25%)" stroke-width="1.0" />
<text x="170.67888196613353" y="84.33092595978223" text-anchor="middle" font-family="Verdana" font-size="7.5" fill="rgb(25%, 25%, 25%)" >180</text>
<line x1="17.50000000000034" y1="61.33092595978229" x2="12.500000000000341" y2="61.33092595978235" stroke="rgb(25%, 25%, 25%)" stroke-width="1.0" />
<text x="5.000000000000341" y="64.3309259597824" text-anchor="middle" font-family="Verdana" font-size="7.5" fill="rgb(25%, 25%, 25%)" >188</text>
</svg>
